<svg xmlns="http://www.w3.org/2000/svg" xmlns:xlink="http://www.w3.org/1999/xlink" viewBox="0 0 101.2 101.2"><defs><style>.cls-1{fill:#3c3c3b;}.cls-2{fill:#007b00;}.cls-3{fill:url(#radial-gradient);}.cls-4{fill:#fff;}.cls-5{fill:#fcea10;}</style><radialGradient id="radial-gradient" cx="56.41" cy="-679.99" r="18.91" gradientTransform="matrix(1, 0, 0, -1, 0, -634.61)" gradientUnits="userSpaceOnUse"><stop offset="0.06" stop-color="#95c11f"/><stop offset="0.27" stop-color="#679815"/><stop offset="0.5" stop-color="#3d720c"/><stop offset="0.7" stop-color="#1f5705"/><stop offset="0.88" stop-color="#0d4601"/><stop offset="1" stop-color="#064000"/></radialGradient></defs><title>Asset 1</title><g id="Layer_2" data-name="Layer 2"><g id="Layer_1-2" data-name="Layer 1"><path class="cls-1" d="M30.2,97.2l.6.4a2.7,2.7,0,0,1-.8.7,1.81,1.81,0,0,1-2-.9A1.7,1.7,0,0,1,28,96a2.15,2.15,0,0,1,.9-1.2,2,2,0,0,1,1.3-.1,1.6,1.6,0,0,1,.9.7.88.88,0,0,1,.1.7l-.7-.1a.79.79,0,0,0-.5-.8.62.62,0,0,0-.7.1,1,1,0,0,0-.5.8,1.73,1.73,0,0,0-.1,1,1.21,1.21,0,0,0,.5.5.45.45,0,0,0,.5,0A.66.66,0,0,0,30.2,97.2Z"/><path class="cls-1" d="M31.6,99.1l.9-3.5,2.6.7-.2.6L33,96.3l-.2.8,1.8.5-.2.6-1.8-.5-.2,1,2,.5-.2.6Z"/><path class="cls-1" d="M35.4,100l.6-3.6.7.1,1,2.6.4-2.4.7.1-.6,3.6-.7-.1-1-2.6-.4,2.3Z"/><path class="cls-1" d="M39.9,97.1l1.3.1c.2,0,.5.1.7.1a1,1,0,0,1,.5.4l.3.6v.9a2.35,2.35,0,0,1-.2.8,2.65,2.65,0,0,1-.5.6c-.2.1-.3.2-.5.2h-.6l-1.4-.1Zm.6.7-.2,2.4.5.1h.4c.1,0,.2-.1.3-.1s.2-.2.2-.3a1.27,1.27,0,0,0,.1-.6v-.6a.76.76,0,0,0-.2-.4c-.1-.1-.2-.2-.3-.2a1.27,1.27,0,0,0-.6-.1Z"/><path class="cls-1" d="M43.6,101.1l.2-3.6h.7l-.2,3.6Z"/><path class="cls-1" d="M45.6,101.2l-.1-3.6h.7v1.6l1.4-1.6h1L47.3,99l1.5,2.2h-1l-1-1.7-.6.6v1.1Z"/><path class="cls-1" d="M53,100.8l-.8.1-.4-.8-1.4.1-.2.8-.8.1,1.1-3.7.8-.1Zm-1.5-1.3-.6-1.3-.4,1.4Z"/><path class="cls-1" d="M54.9,96.9l1.4-.3c.2,0,.4-.1.6-.1a.6.6,0,0,1,.4.1c.1.1.2.1.3.2a.52.52,0,0,1,.2.4.87.87,0,0,1-.4.9,1.42,1.42,0,0,1,.6.2,2.19,2.19,0,0,1,.3.5v.5a.52.52,0,0,1-.2.4,2.19,2.19,0,0,1-.5.3c-.1,0-.4.1-.9.2l-1.2.2Zm.8.5.2.8.5-.1.5-.1c.1,0,.2-.1.3-.2a.19.19,0,0,0,0-.3.35.35,0,0,0-.1-.2.37.37,0,0,0-.3-.1l-.6.1Zm.3,1.4.2,1,.7-.1c.2,0,.3-.1.5-.1a.22.22,0,0,0,.2-.2v-.3c0-.1-.1-.2-.1-.3a.37.37,0,0,0-.3-.1,1.27,1.27,0,0,0-.6.1Z"/><path class="cls-1" d="M62.8,98.8,62,99l-.5-.7-1.4.4-.1.9-.7.2.4-3.9.7-.2Zm-1.7-1-.8-1.2L60.1,98Z"/><path class="cls-1" d="M63.7,98.5l-1.2-3.4.7-.2,2.2,1.8-.8-2.3.6-.2,1.2,3.4-.7.2L63.6,96l.8,2.2Z"/><path class="cls-1" d="M68.7,95.1l-.3-.5,1.4-.6.6,1.3c-.1.2-.3.4-.4.6a3,3,0,0,1-.7.5,3,3,0,0,1-1,.2,1.8,1.8,0,0,1-.9-.4,1.56,1.56,0,0,1-.6-.8,3,3,0,0,1-.2-1,1.22,1.22,0,0,1,.4-.9,1.79,1.79,0,0,1,.7-.5,2,2,0,0,1,1.1-.2,2.18,2.18,0,0,1,.8.5l-.6.4c-.1-.1-.3-.2-.4-.3a.75.75,0,0,0-.5.1.9.9,0,0,0-.6.6,1.18,1.18,0,0,0,.1,1,1.78,1.78,0,0,0,.7.8,1.1,1.1,0,0,0,.8,0c.1-.1.3-.2.4-.3s.2-.3.3-.5l-.2-.4Z"/><path class="cls-1" d="M71,94.2l.6-.4a.55.55,0,0,0,.5.3.75.75,0,0,0,.5-.1.78.78,0,0,0,.4-.4.3.3,0,0,0,0-.4c0-.1-.1-.1-.2-.2h-.3l-.6.1a2.77,2.77,0,0,1-.9.1c-.3-.1-.5-.2-.6-.5a.9.9,0,0,1-.1-.5.76.76,0,0,1,.2-.5,3.17,3.17,0,0,1,.6-.5,1.23,1.23,0,0,1,1-.2,1.28,1.28,0,0,1,.7.5l-.6.4a1.38,1.38,0,0,0-.4-.3.9.9,0,0,0-.5.1.78.78,0,0,0-.4.4v.3c0,.1.1.1.2.1a1.7,1.7,0,0,0,.7-.1,2.2,2.2,0,0,1,.8-.1.75.75,0,0,1,.5.1,1.23,1.23,0,0,1,.5,1,1.42,1.42,0,0,1-.2.6,2.65,2.65,0,0,1-.6.5,1.39,1.39,0,0,1-1.1.2A3,3,0,0,1,71,94.2Z"/><path class="cls-1" d="M77.8,91.4l-.7.4-.7-.5-1.2.8.2.8-.6.4L74,89.6l.6-.4Zm-1.9-.5L74.8,90l.3,1.4Z"/><path class="cls-1" d="M80.7,89.2l-3.3-2,.6-.5,2.4,1.5-1-2.6.6-.5,1.3,3.6Z"/><path class="cls-1" d="M81.6,86.1a2.18,2.18,0,0,1-.5-.8.75.75,0,0,1-.1-.5,1.27,1.27,0,0,1,.1-.6,1.47,1.47,0,0,1,.5-.6,1.9,1.9,0,0,1,1.3-.5,2.23,2.23,0,0,1,1.9,2,1.61,1.61,0,0,1-.6,1.3,1.9,1.9,0,0,1-1.3.5A2.22,2.22,0,0,1,81.6,86.1Zm.5-.5a1.37,1.37,0,0,0,.8.5,1,1,0,0,0,1-.9v-.1a1.8,1.8,0,0,0-.4-.9,1.37,1.37,0,0,0-.8-.5,1,1,0,0,0-1,.9v.1A1.27,1.27,0,0,0,82.1,85.6Z"/><path class="cls-1" d="M86.7,81.6l.6-.4a1.69,1.69,0,0,1,.3,1A1.81,1.81,0,0,1,86,83.7a1.61,1.61,0,0,1-1.3-.6,1.71,1.71,0,0,1-.7-1.3,1.35,1.35,0,0,1,.5-1.2,1.23,1.23,0,0,1,1-.5.84.84,0,0,1,.7.2l-.4.6a.8.8,0,0,0-1,.2.62.62,0,0,0-.2.7,2.18,2.18,0,0,0,.5.8,1.35,1.35,0,0,0,.9.5.71.71,0,0,0,.6-.3.76.76,0,0,0,.2-.5A.59.59,0,0,0,86.7,81.6Z"/><path class="cls-1" d="M90.9,78.5l-.5.6-.8-.3L88.7,80l.5.7-.5.6-2-3.3.5-.6Zm-1.9.1-1.4-.4.8,1.2Z"/><path class="cls-1" d="M91.7,77.4l-2.4-1.7-.6.9-.5-.3,1.6-2.4.5.3-.6.9,2.5,1.7Z"/><path class="cls-1" d="M93.2,75l-3.1-1.9.4-.6,3.1,1.9Z"/><path class="cls-1" d="M92.5,72.7a1.34,1.34,0,0,1-.7-.6c-.1-.2-.2-.3-.3-.5a1.27,1.27,0,0,1-.1-.6,2.35,2.35,0,0,1,.2-.8,1.76,1.76,0,0,1,1-.9,1.9,1.9,0,0,1,1.2,3.6A2.18,2.18,0,0,1,92.5,72.7Zm.4-.7a1.64,1.64,0,0,0,1,.2,1,1,0,0,0,.7-1.2v-.1a1.21,1.21,0,0,0-.7-.7,1.16,1.16,0,0,0-1-.2,1.09,1.09,0,0,0-.7,1.2v.1A1.21,1.21,0,0,0,92.9,72Z"/><path class="cls-1" d="M96.2,69.4,92.9,68l.3-.7,2.8-.4-2.2-1,.3-.6,3.3,1.4-.3.7-2.7.4,2.2.9Z"/><path class="cls-1" d="M98.9,62.4l-.3.8h-.9l-.5,1.4.7.5-.2.7-2.9-2.5.2-.7Zm-1.8.8H95.7l1.1.9Z"/><path class="cls-1" d="M99.1,61.5l-3.5-.9.2-.7,2.9.7.5-1.8.6.2Z"/><path class="cls-1" d="M100.3,56.3l-3.6-.5.1-.7,1.4.2.2-1.4L97,53.7l.1-.7,3.6.5-.1.7L99,54l-.2,1.4,1.6.2Z"/><path class="cls-1" d="M100.9,52.2l-3.6-.3.1-.7,3.6.3Z"/><path class="cls-1" d="M99.8,48.5h-.6l.1-1.6h1.4a1.61,1.61,0,0,1,.4.7,2.77,2.77,0,0,1,.1.9,1.93,1.93,0,0,1-.3,1,1.34,1.34,0,0,1-.7.6,3,3,0,0,1-1,.2,1.93,1.93,0,0,1-1-.3,1.34,1.34,0,0,1-.6-.7,1.41,1.41,0,0,1-.1-.9,1.69,1.69,0,0,1,.3-1,2.18,2.18,0,0,1,.8-.5l.1.7c-.2,0-.3.1-.4.3a.76.76,0,0,0-.2.5,1.14,1.14,0,0,0,.3.8,1.4,1.4,0,0,0,.9.3,1.8,1.8,0,0,0,1-.2,2.51,2.51,0,0,0,.4-.7.9.9,0,0,0-.1-.5.76.76,0,0,0-.2-.4h-.5Z"/><path class="cls-1" d="M101.2,45.8l-3.6.1v-.7l1.4-.1-.1-1.4-1.4.1V43l3.6-.1v.7l-1.6.1.1,1.4,1.6-.1Z"/><path class="cls-1" d="M99.6,40.1l-.2-.7a2.19,2.19,0,0,0,.5-.3,1.09,1.09,0,0,0,.1-.5.76.76,0,0,0-.2-.5c-.1-.1-.2-.1-.4-.1s-.2,0-.2.1a.37.37,0,0,0-.1.3,1.76,1.76,0,0,1-.1.6,2.92,2.92,0,0,1-.2.9,1,1,0,0,1-1.2.4.78.78,0,0,1-.4-.4,1.45,1.45,0,0,1-.2-.7,1.28,1.28,0,0,1,.9-1.5l.1.7a.54.54,0,0,0-.4.3.45.45,0,0,0,0,.5c0,.2.1.3.2.5s.1.1.2.1a.35.35,0,0,0,.2-.1,1.7,1.7,0,0,0,.1-.7c0-.3.1-.5.1-.8s.2-.3.3-.5.3-.2.5-.2a1.27,1.27,0,0,1,.6.1,1,1,0,0,1,.5.4,1.88,1.88,0,0,1,.2.8,1.39,1.39,0,0,1-.2,1.1C100.3,39.8,100,40,99.6,40.1Z"/><path class="cls-1" d="M98.3,33.9l.1-.7a1.69,1.69,0,0,1,1,.3,1.35,1.35,0,0,1,.5.9,2,2,0,0,1-.2,1.3,1.52,1.52,0,0,1-1.2.7,2.57,2.57,0,0,1-1.5-.1,1.55,1.55,0,0,1-.8-1.1,1.38,1.38,0,0,1,.1-1.1,1,1,0,0,1,.6-.5l.3.7a.75.75,0,0,0-.4.9.82.82,0,0,0,.4.6,1.7,1.7,0,0,0,1,0,1.19,1.19,0,0,0,.9-.5.82.82,0,0,0,.1-.7c0-.2-.1-.3-.3-.5S98.5,33.9,98.3,33.9Z"/><path class="cls-1" d="M99.1,31.8l-3.4,1.1-.2-.7,1.4-.4-.4-1.4-1.4.4-.2-.7L98.3,29l.2.7-1.5.5.4,1.4,1.5-.5Z"/><path class="cls-1" d="M96.2,28.6a2.92,2.92,0,0,1-.9.2c-.2,0-.4-.1-.6-.1s-.3-.2-.5-.3a1.61,1.61,0,0,1-.4-.7,1.7,1.7,0,0,1,0-1.4,2.15,2.15,0,0,1,2.5-1,1.65,1.65,0,0,1,1,1,1.7,1.7,0,0,1,0,1.4A2,2,0,0,1,96.2,28.6Zm-.3-.7a1.56,1.56,0,0,0,.8-.6,1.1,1.1,0,0,0,0-.8.63.63,0,0,0-.6-.5,1.18,1.18,0,0,0-1,.1,1.56,1.56,0,0,0-.8.6,1,1,0,0,0,.5,1.3h.1A1.64,1.64,0,0,0,95.9,27.9Z"/><path class="cls-1" d="M94.6,24.6l-.9.3a1.27,1.27,0,0,1-.6-.1c-.2-.1-.4-.1-.5-.3a2.65,2.65,0,0,1-.5-.6,1.69,1.69,0,0,1-.1-1.4,2.22,2.22,0,0,1,2.5-1.2,2,2,0,0,1,1.2,2.3A3.46,3.46,0,0,1,94.6,24.6Zm-.4-.7a1.21,1.21,0,0,0,.7-.7,1,1,0,0,0-.6-1.3h-.1a1.23,1.23,0,0,0-1,.2,1.21,1.21,0,0,0-.7.7,1,1,0,0,0,.6,1.3h.1A1.16,1.16,0,0,0,94.2,23.9Z"/><path class="cls-1" d="M94.1,19.7,91,21.5l-.4-.6,2.6-1.5-1-1.5.5-.3Z"/><circle class="cls-2" cx="46.6" cy="46.6" r="46.6"/><circle class="cls-3" cx="46.6" cy="46.6" r="42.5"/><path class="cls-4" d="M44.5,20.9l.3,16.7h-.5c-.2-.7-.3-1.3-.4-1.6a51.23,51.23,0,0,0-1.3-5.3,21.22,21.22,0,0,0-2.5-5.8A8.94,8.94,0,0,0,37.5,22a5.21,5.21,0,0,0-2.9-.9,6.22,6.22,0,0,0-4.3,1.8,15.21,15.21,0,0,0-3,4.6A32.9,32.9,0,0,0,25,34.4a57.14,57.14,0,0,0-1.3,12.3,63.07,63.07,0,0,0,.8,10.6A26.36,26.36,0,0,0,27,65.1C29,69,31.7,71,35.1,71a8,8,0,0,0,4.5-1.4,9.27,9.27,0,0,0,3.1-4.2A34.15,34.15,0,0,0,44.6,57l.5.1a30.25,30.25,0,0,1-1.9,9.4,12.26,12.26,0,0,1-3.9,5.1,10,10,0,0,1-5.8,1.8,12,12,0,0,1-5.9-1.5c-3-1.6-5.3-4.6-6.9-8.9a42.2,42.2,0,0,1-2.5-15.4A53,53,0,0,1,19.7,35a25,25,0,0,1,4.1-9.3,16.5,16.5,0,0,1,4.8-4.3,11,11,0,0,1,5.6-1.6,12.62,12.62,0,0,1,5.7,1.7l1.8,1a1.61,1.61,0,0,0,.9.3c.4,0,.7-.3.9-.8a5.64,5.64,0,0,0,.4-1.2Z"/><path class="cls-4" d="M47.6,72.2v-.9a4.2,4.2,0,0,0,2.1-.6,5,5,0,0,0,1.4-1.5,8.19,8.19,0,0,0,1-3,36.22,36.22,0,0,0,.2-5.7V32.9c0-1.9-.1-3.8-.2-5.7a7.61,7.61,0,0,0-1-3,4.28,4.28,0,0,0-1.4-1.6,4.2,4.2,0,0,0-2.1-.6v-.9H62.1a18.76,18.76,0,0,1,2.9.1,7.21,7.21,0,0,1,4.2,2,10.1,10.1,0,0,1,2.2,3.9,20.32,20.32,0,0,1,.8,5.5,15.69,15.69,0,0,1-1.8,8,9.51,9.51,0,0,1-1.5,2,14.65,14.65,0,0,1-2.4,1.7,12,12,0,0,1,3.3,1.3,8,8,0,0,1,2.1,2,14.9,14.9,0,0,1,2.2,4.8,26.53,26.53,0,0,1,.8,6.3,21.54,21.54,0,0,1-.8,6.2,11.83,11.83,0,0,1-2.2,4.5,7.65,7.65,0,0,1-3.1,2.2,14.86,14.86,0,0,1-5.1.6Zm9.5-49.9V44.5h1.8a10.9,10.9,0,0,0,2.6-.3,10.66,10.66,0,0,0,1.9-.7,6.89,6.89,0,0,0,1.3-1.1,9.93,9.93,0,0,0,1.7-3.6,19.93,19.93,0,0,0,.6-4.9,24.82,24.82,0,0,0-.6-5.4,11.8,11.8,0,0,0-1.7-4,4.43,4.43,0,0,0-2.1-1.7,10.24,10.24,0,0,0-3.5-.5Zm0,23.4V61.1c0,1.5.1,3,.2,4.5a9.61,9.61,0,0,0,.8,2.9A3.91,3.91,0,0,0,62,71a6.28,6.28,0,0,0,5.6-3.3q2.1-3.3,2.1-9a29.78,29.78,0,0,0-.6-6,13.34,13.34,0,0,0-1.7-4.3,7.23,7.23,0,0,0-6.2-2.8Z"/><polygon class="cls-5" points="25.1 89.5 24.8 92.4 27.4 93.6 24.6 94.2 24.3 97.1 22.8 94.6 20 95.2 21.9 93 20.5 90.5 23.1 91.6 25.1 89.5"/><polygon class="cls-5" points="89.1 9.7 89.1 12.6 91.8 13.5 89.1 14.4 89 17.3 87.3 14.9 84.5 15.8 86.3 13.5 84.6 11.1 87.4 12 89.1 9.7"/></g></g></svg>