<?xml version="1.0" encoding="utf-8"?>
<!-- Generator: Adobe Illustrator 21.0.2, SVG Export Plug-In . SVG Version: 6.00 Build 0)  -->
<svg version="1.1" id="Layer_1" xmlns="http://www.w3.org/2000/svg" xmlns:xlink="http://www.w3.org/1999/xlink" x="0px" y="0px"
	 viewBox="0 0 415.5 103.2" style="enable-background:new 0 0 415.5 103.2;" xml:space="preserve">
<style type="text/css">
	.st0{enable-background:new    ;}
	.st1{fill:#3C3C3B;}
	.st2{fill:#007B00;}
	.st3{fill:url(#SVGID_1_);}
	.st4{fill:#FFFFFF;}
	.st5{fill:#FCEA10;}
</style>
<title>Asset 1</title>
<g>
	<g class="st0">
		<path class="st1" d="M117.3,59.3c-0.4-0.2-0.4-0.3-0.4-0.8c0-1.3,0.1-2.7,0.1-3.1c0-0.4,0.1-0.6,0.3-0.6c0.2,0,0.2,0.2,0.2,0.4
			c0,0.3,0.1,0.8,0.2,1.2c0.5,1.7,1.9,2.4,3.4,2.4c2.1,0,3.2-1.4,3.2-2.7c0-1.2-0.4-2.2-2.3-3.8l-1.1-0.8c-2.6-2-3.5-3.7-3.5-5.6
			c0-2.6,2.2-4.5,5.4-4.5c1.5,0,2.5,0.2,3.1,0.4c0.2,0,0.3,0.1,0.3,0.3c0,0.3-0.1,1-0.1,2.8c0,0.5-0.1,0.7-0.3,0.7
			c-0.2,0-0.2-0.1-0.2-0.4c0-0.2-0.1-0.9-0.6-1.6c-0.4-0.4-1-1.2-2.6-1.2c-1.7,0-2.8,1-2.8,2.4c0,1.1,0.5,1.9,2.5,3.4l0.7,0.5
			c2.8,2.1,3.9,3.8,3.9,6c0,1.4-0.5,3-2.2,4.1c-1.2,0.8-2.5,1-3.7,1C119.4,60,118.3,59.8,117.3,59.3z"/>
		<path class="st1" d="M133,41.9c0.1-0.4,0.2-0.6,0.4-0.6c0.2,0,0.3,0.1,0.6,0.7l6.4,13.3l6.4-13.4c0.2-0.4,0.3-0.6,0.5-0.6
			s0.4,0.2,0.4,0.7l2.1,14.5c0.2,1.5,0.4,2.2,1.2,2.4c0.7,0.2,1.2,0.2,1.5,0.2c0.2,0,0.4,0,0.4,0.2c0,0.2-0.3,0.3-0.6,0.3
			c-0.6,0-3.8-0.1-4.8-0.1c-0.5,0-0.7-0.1-0.7-0.3c0-0.1,0.1-0.2,0.3-0.3c0.1,0,0.2-0.4,0.1-1l-1.4-10.4h-0.1l-5.1,10.7
			c-0.5,1.1-0.7,1.3-0.9,1.3s-0.4-0.5-0.8-1.2c-0.6-1.1-2.4-4.7-2.7-5.3c-0.2-0.5-1.6-3.5-2.4-5.2h-0.1l-1.2,9.4
			c0,0.4-0.1,0.7-0.1,1.1c0,0.4,0.3,0.7,0.7,0.8c0.4,0.1,0.8,0.1,1,0.1c0.2,0,0.4,0,0.4,0.2c0,0.2-0.2,0.3-0.6,0.3
			c-1,0-2-0.1-2.5-0.1c-0.4,0-1.6,0.1-2.3,0.1c-0.2,0-0.4,0-0.4-0.3c0-0.1,0.1-0.2,0.4-0.2c0.2,0,0.4,0,0.7-0.1
			c0.7-0.1,0.8-1.1,1-1.9L133,41.9z"/>
		<path class="st1" d="M159.5,49.7h0.1c0.8-0.9,4.2-4.4,4.9-5.2c0.7-0.8,1.2-1.4,1.2-1.8c0-0.3-0.1-0.4-0.3-0.5
			c-0.2,0-0.3-0.1-0.3-0.2c0-0.2,0.1-0.2,0.4-0.2c0.5,0,1.8,0.1,2.4,0.1c0.7,0,2-0.1,2.8-0.1c0.2,0,0.4,0,0.4,0.2
			c0,0.2-0.1,0.2-0.4,0.2c-0.3,0-0.9,0.1-1.4,0.3c-0.7,0.3-1.5,0.8-2.5,1.8c-0.7,0.7-4.3,4.2-5.1,5.1c0.8,1.1,5.5,6.1,6.4,6.9
			c1,1,2.1,2,3.4,2.5c0.7,0.3,1.2,0.4,1.5,0.4c0.2,0,0.3,0,0.3,0.2c0,0.2-0.1,0.2-0.6,0.2h-2c-0.7,0-1.1,0-1.6,0
			c-1.3-0.1-1.9-0.6-2.9-1.5c-1-0.9-5.7-6.4-6.2-7l-0.3-0.4h-0.1v2.1c0,2.2,0,4,0.1,5c0,0.7,0.3,1.2,0.8,1.3c0.3,0,0.8,0.1,1.2,0.1
			c0.2,0,0.3,0.1,0.3,0.2c0,0.2-0.2,0.2-0.4,0.2c-1.3,0-2.8-0.1-3.4-0.1c-0.5,0-2,0.1-3,0.1c-0.3,0-0.5-0.1-0.5-0.2
			c0-0.1,0.1-0.2,0.4-0.2c0.4,0,0.6,0,0.8-0.1c0.5-0.1,0.6-0.6,0.7-1.3c0.1-1,0.1-2.8,0.1-5v-4.1c0-3.6,0-4.2,0-5
			c0-0.8-0.2-1.2-1-1.3c-0.2,0-0.6-0.1-0.9-0.1c-0.3,0-0.4,0-0.4-0.2c0-0.2,0.2-0.2,0.5-0.2c1.2,0,2.7,0.1,3.3,0.1s2-0.1,2.8-0.1
			c0.3,0,0.5,0,0.5,0.2c0,0.2-0.1,0.2-0.3,0.2c-0.2,0-0.4,0-0.7,0.1c-0.6,0.1-0.8,0.5-0.9,1.3c0,0.8,0,1.4,0,5V49.7z"/>
		<path class="st1" d="M182.1,57.4c-2.3-2-2.9-4.7-2.9-6.9c0-1.6,0.5-4.4,2.8-6.5c1.7-1.6,3.9-2.5,7.4-2.5c1.5,0,2.3,0.1,3.4,0.2
			c0.9,0.1,1.6,0.3,2.4,0.4c0.3,0,0.4,0.1,0.4,0.3c0,0.2-0.1,0.5-0.1,1.3c0,0.8,0,2.1-0.1,2.5c0,0.4-0.1,0.5-0.3,0.5
			c-0.2,0-0.2-0.2-0.2-0.5c0-0.7-0.3-1.6-0.9-2.2c-0.8-0.8-2.6-1.5-4.8-1.5c-2,0-3.4,0.5-4.4,1.5c-1.7,1.6-2.2,3.8-2.2,6.1
			c0,5.6,4.3,8.4,7.4,8.4c2.1,0,3.4-0.2,4.3-1.3c0.4-0.4,0.7-1.1,0.8-1.6c0.1-0.4,0.1-0.5,0.3-0.5c0.2,0,0.2,0.2,0.2,0.4
			c0,0.3-0.3,2.3-0.5,3.1c-0.1,0.4-0.2,0.5-0.6,0.7c-0.9,0.4-2.7,0.5-4.2,0.5C187,60,184.3,59.3,182.1,57.4z"/>
		<path class="st1" d="M200.6,48.7c0-3.6,0-4.2,0-5c0-0.8-0.2-1.2-1-1.3c-0.2,0-0.6-0.1-0.9-0.1c-0.3,0-0.4,0-0.4-0.2
			c0-0.2,0.2-0.2,0.5-0.2c0.6,0,1.3,0,1.9,0c0.6,0,1.2,0,1.5,0c0.8,0,5.4,0,5.9,0c0.4,0,0.8-0.1,1-0.1c0.1,0,0.3-0.1,0.4-0.1
			c0.1,0,0.1,0.1,0.1,0.2c0,0.2-0.1,0.4-0.2,1.5c0,0.2-0.1,1.3-0.1,1.6c0,0.1-0.1,0.3-0.2,0.3c-0.2,0-0.2-0.1-0.2-0.3
			c0-0.2,0-0.6-0.1-0.8c-0.2-0.4-0.4-0.7-1.6-0.8c-0.4,0-2.9-0.1-3.3-0.1c-0.1,0-0.2,0.1-0.2,0.2v6c0,0.2,0,0.3,0.2,0.3
			c0.5,0,3.2,0,3.8,0c0.6,0,0.9-0.1,1.1-0.4c0.2-0.2,0.3-0.3,0.4-0.3c0.1,0,0.2,0,0.2,0.2s-0.1,0.5-0.2,1.7c0,0.5-0.1,1.4-0.1,1.6
			c0,0.2,0,0.4-0.2,0.4c-0.2,0-0.2-0.1-0.2-0.2c0-0.2,0-0.5-0.1-0.8c-0.1-0.5-0.4-0.8-1.3-0.9c-0.4,0-2.8-0.1-3.3-0.1
			c-0.1,0-0.1,0.1-0.1,0.2v1.9c0,0.8,0,3,0,3.6c0,1.6,0.4,2,2.8,2c0.6,0,1.6,0,2.2-0.3c0.6-0.3,0.9-0.8,1.1-1.7
			c0-0.3,0.1-0.4,0.3-0.4c0.2,0,0.2,0.2,0.2,0.4c0,0.5-0.2,2.1-0.3,2.6c-0.2,0.6-0.4,0.6-1.3,0.6c-1.8,0-3.1,0-4.1-0.1
			c-1,0-1.7-0.1-2.4-0.1c-0.3,0-0.8,0-1.3,0c-0.5,0-1.2,0-1.6,0c-0.3,0-0.5-0.1-0.5-0.2c0-0.1,0.1-0.2,0.4-0.2c0.4,0,0.6,0,0.8-0.1
			c0.5-0.1,0.6-0.6,0.7-1.3c0.1-1,0.1-2.8,0.1-5V48.7z"/>
		<path class="st1" d="M216.8,56.4c0,1.8,0.4,2.4,0.8,2.6c0.4,0.1,0.8,0.2,1.2,0.2c0.3,0,0.4,0,0.4,0.2c0,0.2-0.2,0.2-0.5,0.2
			c-1.5,0-2.5-0.1-2.9-0.1c-0.2,0-1.3,0.1-2.5,0.1c-0.3,0-0.5,0-0.5-0.2c0-0.1,0.1-0.2,0.4-0.2c0.3,0,0.7,0,1.1-0.1
			c0.6-0.2,0.7-0.9,0.7-2.9l0.2-13.9c0-0.5,0.1-0.8,0.3-0.8c0.3,0,0.5,0.3,0.9,0.7c0.3,0.3,3.9,4.1,7.3,7.6c1.6,1.6,4.8,5,5.2,5.4
			h0.1l-0.2-10.6c0-1.4-0.2-1.9-0.8-2.1c-0.4-0.1-0.9-0.1-1.2-0.1c-0.3,0-0.4-0.1-0.4-0.2c0-0.2,0.3-0.2,0.6-0.2
			c1.2,0,2.4,0.1,2.8,0.1c0.3,0,1.2-0.1,2.3-0.1c0.3,0,0.5,0,0.5,0.2c0,0.1-0.1,0.2-0.4,0.2c-0.2,0-0.4,0-0.7,0.1
			c-0.7,0.2-0.8,0.7-0.9,2l-0.3,14.9c0,0.5-0.1,0.7-0.3,0.7c-0.3,0-0.5-0.3-0.8-0.5c-1.5-1.4-4.5-4.5-6.9-6.9
			c-2.6-2.5-5.2-5.5-5.6-5.9h-0.1L216.8,56.4z"/>
		<path class="st1" d="M237.8,48.7c0-3.6,0-4.2,0-5c0-0.8-0.2-1.2-1-1.3c-0.2,0-0.6-0.1-0.9-0.1c-0.3,0-0.4,0-0.4-0.2
			c0-0.2,0.2-0.2,0.5-0.2c1.2,0,2.7,0.1,3.4,0.1c0.7,0,2.2-0.1,3.6-0.1c2.9,0,6.9,0,9.4,2.7c1.2,1.2,2.3,3.2,2.3,6
			c0,3-1.2,5.2-2.6,6.6c-1.1,1.1-3.5,2.8-7.9,2.8c-0.8,0-1.8-0.1-2.7-0.1c-0.9-0.1-1.7-0.1-2.3-0.1c-0.3,0-0.8,0-1.3,0
			c-0.5,0-1.2,0-1.6,0c-0.3,0-0.5-0.1-0.5-0.2c0-0.1,0.1-0.2,0.4-0.2c0.4,0,0.6,0,0.8-0.1c0.5-0.1,0.6-0.6,0.7-1.3
			c0.1-1,0.1-2.8,0.1-5V48.7z M240.7,51.2c0,2.5,0,4.3,0,4.8c0,0.6,0.1,1.5,0.3,1.8c0.3,0.4,1.2,0.9,3.1,0.9c2.4,0,4-0.5,5.4-1.7
			c1.5-1.3,2-3.4,2-5.9c0-3-1.2-4.9-2.3-5.9c-2.2-2.1-4.9-2.4-6.7-2.4c-0.5,0-1.3,0.1-1.5,0.2c-0.2,0.1-0.3,0.2-0.3,0.5
			c0,0.8,0,2.8,0,4.7V51.2z"/>
		<path class="st1" d="M259.6,48.7c0-3.6,0-4.2,0-5c0-0.8-0.3-1.2-0.8-1.3c-0.3-0.1-0.6-0.1-0.8-0.1c-0.2,0-0.4,0-0.4-0.2
			c0-0.1,0.2-0.2,0.6-0.2c0.9,0,2.4,0.1,3.1,0.1c0.6,0,2-0.1,2.9-0.1c0.3,0,0.5,0,0.5,0.2c0,0.2-0.1,0.2-0.4,0.2s-0.4,0-0.7,0.1
			c-0.6,0.1-0.8,0.5-0.9,1.3c0,0.8,0,1.4,0,5v4.1c0,2.3,0,4.1,0.1,5.2c0.1,0.6,0.2,1.1,0.9,1.2c0.3,0,0.8,0.1,1.2,0.1
			c0.3,0,0.4,0.1,0.4,0.2c0,0.2-0.2,0.2-0.4,0.2c-1.6,0-3-0.1-3.7-0.1c-0.5,0-2,0.1-3,0.1c-0.3,0-0.5-0.1-0.5-0.2
			c0-0.1,0.1-0.2,0.4-0.2c0.4,0,0.6,0,0.8-0.1c0.5-0.1,0.6-0.5,0.7-1.2c0.1-1,0.1-2.8,0.1-5.1V48.7z"/>
		<path class="st1" d="M273.1,49.7h0.1c0.8-0.9,4.2-4.4,4.9-5.2c0.7-0.8,1.2-1.4,1.2-1.8c0-0.3-0.1-0.4-0.3-0.5
			c-0.2,0-0.3-0.1-0.3-0.2c0-0.2,0.1-0.2,0.4-0.2c0.5,0,1.8,0.1,2.4,0.1c0.7,0,2-0.1,2.8-0.1c0.2,0,0.4,0,0.4,0.2
			c0,0.2-0.1,0.2-0.4,0.2c-0.3,0-0.9,0.1-1.4,0.3c-0.7,0.3-1.5,0.8-2.5,1.8c-0.7,0.7-4.3,4.2-5.1,5.1c0.8,1.1,5.5,6.1,6.4,6.9
			c1,1,2.1,2,3.4,2.5c0.7,0.3,1.2,0.4,1.5,0.4c0.2,0,0.3,0,0.3,0.2c0,0.2-0.1,0.2-0.6,0.2h-2c-0.7,0-1.1,0-1.6,0
			c-1.3-0.1-1.9-0.6-2.9-1.5c-1-0.9-5.7-6.4-6.2-7l-0.3-0.4h-0.1v2.1c0,2.2,0,4,0.1,5c0,0.7,0.3,1.2,0.8,1.3c0.3,0,0.8,0.1,1.2,0.1
			c0.2,0,0.3,0.1,0.3,0.2c0,0.2-0.2,0.2-0.4,0.2c-1.3,0-2.8-0.1-3.4-0.1c-0.5,0-2,0.1-3,0.1c-0.3,0-0.5-0.1-0.5-0.2
			c0-0.1,0.1-0.2,0.4-0.2c0.4,0,0.6,0,0.8-0.1c0.5-0.1,0.6-0.6,0.7-1.3c0.1-1,0.1-2.8,0.1-5v-4.1c0-3.6,0-4.2,0-5
			c0-0.8-0.2-1.2-1-1.3c-0.2,0-0.6-0.1-0.9-0.1c-0.3,0-0.4,0-0.4-0.2c0-0.2,0.2-0.2,0.5-0.2c1.2,0,2.7,0.1,3.3,0.1
			c0.6,0,2-0.1,2.8-0.1c0.3,0,0.5,0,0.5,0.2c0,0.2-0.1,0.2-0.3,0.2c-0.2,0-0.4,0-0.7,0.1c-0.6,0.1-0.8,0.5-0.9,1.3c0,0.8,0,1.4,0,5
			V49.7z"/>
		<path class="st1" d="M289,53.5c-0.1,0-0.2,0-0.2,0.2l-1.3,3.4c-0.2,0.6-0.4,1.2-0.4,1.4c0,0.4,0.2,0.7,0.9,0.7h0.4
			c0.3,0,0.4,0,0.4,0.2c0,0.2-0.1,0.2-0.4,0.2c-0.8,0-1.8-0.1-2.5-0.1c-0.3,0-1.6,0.1-2.8,0.1c-0.3,0-0.4,0-0.4-0.2
			c0-0.1,0.1-0.2,0.3-0.2c0.2,0,0.5,0,0.7,0c1.1-0.1,1.5-0.9,2-2.1l5.9-14.8c0.3-0.7,0.4-0.9,0.7-0.9c0.2,0,0.4,0.2,0.6,0.8
			c0.6,1.3,4.3,10.9,5.8,14.5c0.9,2.1,1.6,2.4,2.1,2.6c0.4,0.1,0.7,0.1,1,0.1c0.2,0,0.3,0,0.3,0.2c0,0.2-0.2,0.2-1.1,0.2
			c-0.8,0-2.6,0-4.5,0c-0.4,0-0.7,0-0.7-0.2c0-0.1,0.1-0.2,0.3-0.2c0.2,0,0.3-0.3,0.2-0.5l-1.9-5c0-0.1-0.1-0.2-0.2-0.2H289z
			 M293.8,52.3c0.1,0,0.1-0.1,0.1-0.1l-2.1-5.8c0-0.1,0-0.2-0.1-0.2c-0.1,0-0.1,0.1-0.1,0.2l-2.2,5.8c0,0.1,0,0.2,0.1,0.2H293.8z"/>
		<path class="st1" d="M311.6,48.7c0-3.6,0-4.2,0-5c0-0.8-0.2-1.2-1-1.3c-0.2,0-0.6-0.1-0.9-0.1c-0.3,0-0.4,0-0.4-0.2
			c0-0.2,0.2-0.2,0.5-0.2c1.2,0,2.7,0.1,3.2,0.1c1.2,0,2.1-0.1,2.9-0.1c4.3,0,5,2.3,5,3.5c0,1.9-1.1,3.1-2.4,4.1
			c1.9,0.7,4.3,2.3,4.3,5.1c0,2.5-2,5.1-6.3,5.1c-0.3,0-1,0-1.6-0.1c-0.7,0-1.4-0.1-1.8-0.1c-0.3,0-0.8,0-1.3,0c-0.5,0-1.2,0-1.6,0
			c-0.3,0-0.5-0.1-0.5-0.2c0-0.1,0.1-0.2,0.4-0.2c0.4,0,0.6,0,0.8-0.1c0.5-0.1,0.6-0.6,0.7-1.3c0.1-1,0.1-2.8,0.1-5V48.7z
			 M314.4,49.1c0,0.2,0.1,0.2,0.2,0.3c0.2,0,0.6,0.1,1.1,0.1c0.8,0,1.3-0.1,1.7-0.4c0.6-0.5,1-1.3,1-2.5c0-1.6-0.9-3.6-2.9-3.6
			c-0.3,0-0.5,0-0.8,0c-0.2,0-0.2,0.1-0.2,0.4V49.1z M317.5,50.9c-0.5-0.4-1-0.5-2-0.6c-0.4,0-0.7,0-1,0c-0.1,0-0.1,0-0.1,0.2v5.6
			c0,1.6,0.1,2,0.8,2.3c0.6,0.3,1.2,0.3,1.7,0.3c1.1,0,2.8-0.6,2.8-3C319.8,54.2,319.3,52.2,317.5,50.9z"/>
		<path class="st1" d="M329.3,53.5c-0.1,0-0.2,0-0.2,0.2l-1.3,3.4c-0.2,0.6-0.4,1.2-0.4,1.4c0,0.4,0.2,0.7,0.9,0.7h0.4
			c0.3,0,0.4,0,0.4,0.2c0,0.2-0.1,0.2-0.4,0.2c-0.8,0-1.8-0.1-2.5-0.1c-0.3,0-1.6,0.1-2.8,0.1c-0.3,0-0.4,0-0.4-0.2
			c0-0.1,0.1-0.2,0.3-0.2c0.2,0,0.5,0,0.7,0c1.1-0.1,1.5-0.9,2-2.1l5.9-14.8c0.3-0.7,0.4-0.9,0.7-0.9c0.2,0,0.4,0.2,0.6,0.8
			c0.6,1.3,4.3,10.9,5.8,14.5c0.9,2.1,1.6,2.4,2.1,2.6c0.4,0.1,0.7,0.1,1,0.1c0.2,0,0.3,0,0.3,0.2c0,0.2-0.2,0.2-1.1,0.2
			c-0.8,0-2.6,0-4.4,0c-0.4,0-0.7,0-0.7-0.2c0-0.1,0.1-0.2,0.3-0.2c0.2,0,0.3-0.3,0.2-0.5l-1.9-5c0-0.1-0.1-0.2-0.2-0.2H329.3z
			 M334.1,52.3c0.1,0,0.1-0.1,0.1-0.1l-2.1-5.8c0-0.1,0-0.2-0.1-0.2s-0.1,0.1-0.1,0.2l-2.2,5.8c0,0.1,0,0.2,0.1,0.2H334.1z"/>
		<path class="st1" d="M346.2,56.4c0,1.8,0.4,2.4,0.8,2.6c0.4,0.1,0.8,0.2,1.2,0.2c0.3,0,0.4,0,0.4,0.2c0,0.2-0.2,0.2-0.5,0.2
			c-1.5,0-2.5-0.1-2.9-0.1c-0.2,0-1.3,0.1-2.5,0.1c-0.3,0-0.5,0-0.5-0.2c0-0.1,0.1-0.2,0.4-0.2c0.3,0,0.7,0,1.1-0.1
			c0.6-0.2,0.7-0.9,0.7-2.9l0.2-13.9c0-0.5,0.1-0.8,0.3-0.8c0.3,0,0.5,0.3,0.9,0.7c0.3,0.3,3.9,4.1,7.3,7.6c1.6,1.6,4.8,5,5.2,5.4
			h0.1L358,44.5c0-1.4-0.2-1.9-0.8-2.1c-0.4-0.1-0.9-0.1-1.2-0.1c-0.3,0-0.4-0.1-0.4-0.2c0-0.2,0.3-0.2,0.6-0.2
			c1.2,0,2.4,0.1,2.8,0.1c0.3,0,1.2-0.1,2.3-0.1c0.3,0,0.5,0,0.5,0.2c0,0.1-0.1,0.2-0.4,0.2c-0.2,0-0.4,0-0.7,0.1
			c-0.7,0.2-0.8,0.7-0.9,2l-0.3,14.9c0,0.5-0.1,0.7-0.3,0.7c-0.3,0-0.5-0.3-0.8-0.5c-1.5-1.4-4.5-4.5-6.9-6.9
			c-2.6-2.5-5.2-5.5-5.6-5.9h-0.1L346.2,56.4z"/>
		<path class="st1" d="M381.2,58.1c0,0.6,0,0.7-0.3,0.8c-1.5,0.8-3.8,1.1-5.7,1.1c-5.8,0-10.9-2.7-10.9-9.2c0-3.8,2-6.4,4.1-7.7
			c2.3-1.4,4.4-1.5,6.3-1.5c1.6,0,3.7,0.3,4.2,0.4c0.5,0.1,1.3,0.2,1.9,0.3c0.3,0,0.3,0.1,0.3,0.3c0,0.3-0.2,0.9-0.2,3.9
			c0,0.4-0.1,0.5-0.3,0.5c-0.2,0-0.2-0.1-0.2-0.3c-0.1-0.5-0.2-1.3-0.8-2c-0.7-0.8-2.6-1.8-5.3-1.8c-1.3,0-3,0.1-4.7,1.5
			c-1.3,1.1-2.2,2.9-2.2,5.8c0,5.1,3.2,8.9,8.2,8.9c0.6,0,1.4,0,2-0.3c0.4-0.2,0.4-0.5,0.4-0.9v-2.2c0-1.2,0-2.1,0-2.8
			c0-0.8-0.2-1.2-1-1.3c-0.2,0-0.6-0.1-0.9-0.1c-0.2,0-0.4,0-0.4-0.2c0-0.2,0.2-0.2,0.5-0.2c1.2,0,2.7,0.1,3.4,0.1
			c0.7,0,2-0.1,2.8-0.1c0.3,0,0.5,0,0.5,0.2c0,0.1-0.1,0.2-0.3,0.2c-0.2,0-0.4,0-0.6,0.1c-0.6,0.1-0.9,0.5-0.9,1.3
			c0,0.7,0,1.6,0,2.8V58.1z"/>
		<path class="st1" d="M386.5,59.3c-0.4-0.2-0.4-0.3-0.4-0.8c0-1.3,0.1-2.7,0.1-3.1c0-0.4,0.1-0.6,0.3-0.6c0.2,0,0.2,0.2,0.2,0.4
			c0,0.3,0.1,0.8,0.2,1.2c0.5,1.7,1.9,2.4,3.4,2.4c2.1,0,3.2-1.4,3.2-2.7c0-1.2-0.4-2.2-2.3-3.8l-1.1-0.8c-2.6-2-3.5-3.7-3.5-5.6
			c0-2.6,2.2-4.5,5.4-4.5c1.5,0,2.5,0.2,3.1,0.4c0.2,0,0.3,0.1,0.3,0.3c0,0.3-0.1,1-0.1,2.8c0,0.5-0.1,0.7-0.3,0.7
			c-0.2,0-0.2-0.1-0.2-0.4c0-0.2-0.1-0.9-0.6-1.6c-0.4-0.4-1-1.2-2.6-1.2c-1.7,0-2.8,1-2.8,2.4c0,1.1,0.5,1.9,2.5,3.4l0.7,0.5
			c2.8,2.1,3.9,3.8,3.9,6c0,1.4-0.5,3-2.2,4.1c-1.2,0.8-2.5,1-3.7,1C388.5,60,387.5,59.8,386.5,59.3z"/>
		<path class="st1" d="M402.4,53.5c-0.1,0-0.2,0-0.2,0.2l-1.3,3.4c-0.2,0.6-0.4,1.2-0.4,1.4c0,0.4,0.2,0.7,0.9,0.7h0.4
			c0.3,0,0.4,0,0.4,0.2c0,0.2-0.1,0.2-0.4,0.2c-0.8,0-1.8-0.1-2.5-0.1c-0.3,0-1.6,0.1-2.8,0.1c-0.3,0-0.4,0-0.4-0.2
			c0-0.1,0.1-0.2,0.3-0.2c0.2,0,0.5,0,0.7,0c1.1-0.1,1.5-0.9,2-2.1l5.9-14.8c0.3-0.7,0.4-0.9,0.7-0.9c0.2,0,0.4,0.2,0.6,0.8
			c0.6,1.3,4.3,10.9,5.8,14.5c0.9,2.1,1.6,2.4,2.1,2.6c0.4,0.1,0.7,0.1,1,0.1c0.2,0,0.3,0,0.3,0.2c0,0.2-0.2,0.2-1.1,0.2
			c-0.8,0-2.6,0-4.4,0c-0.4,0-0.7,0-0.7-0.2c0-0.1,0.1-0.2,0.3-0.2c0.2,0,0.3-0.3,0.2-0.5l-1.9-5c0-0.1-0.1-0.2-0.2-0.2H402.4z
			 M407.2,52.3c0.1,0,0.1-0.1,0.1-0.1l-2.1-5.8c0-0.1,0-0.2-0.1-0.2s-0.1,0.1-0.1,0.2l-2.2,5.8c0,0.1,0,0.2,0.1,0.2H407.2z"/>
	</g>
	<g class="st0">
		<path class="st1" d="M118.6,31c0-0.5-0.1-0.7-0.2-1c-0.1-0.2-1.4-2.3-1.7-2.8c-0.2-0.4-0.5-0.6-0.7-0.7c-0.1-0.1-0.3-0.2-0.4-0.2
			c0,0-0.1,0-0.1-0.1c0,0,0-0.1,0.1-0.1c0.2,0,0.9,0,1,0c0.1,0,0.4,0,0.8,0c0.1,0,0.1,0,0.1,0.1s-0.1,0-0.1,0.1
			c-0.1,0-0.1,0.1-0.1,0.2c0,0.1,0,0.2,0.1,0.4c0.2,0.3,1.6,2.8,1.8,3.1c0.2-0.4,1.4-2.6,1.6-2.9c0.1-0.2,0.2-0.4,0.2-0.5
			c0-0.1,0-0.2-0.2-0.3c-0.1,0-0.1,0-0.1-0.1c0,0,0.1-0.1,0.2-0.1c0.3,0,0.6,0,0.6,0c0.1,0,0.8,0,1,0c0.1,0,0.1,0,0.1,0.1
			c0,0,0,0.1-0.1,0.1c-0.1,0-0.3,0-0.5,0.1c-0.2,0.1-0.3,0.2-0.5,0.5c-0.3,0.4-1.7,2.7-1.9,3.1c-0.1,0.4-0.1,0.7-0.1,1v0.8
			c0,0.2,0,0.6,0,1c0,0.3,0.1,0.5,0.4,0.5c0.1,0,0.4,0,0.4,0c0.1,0,0.1,0,0.1,0.1c0,0,0,0.1-0.2,0.1c-0.5,0-1.2,0-1.2,0
			c0,0-0.7,0-1,0c-0.1,0-0.2,0-0.2-0.1c0,0,0-0.1,0.1-0.1c0.1,0,0.2,0,0.3,0c0.2,0,0.3-0.3,0.3-0.5c0-0.4,0-0.8,0-1V31z"/>
		<path class="st1" d="M124.8,26.4c0.1-0.3,0.2-0.4,0.2-0.4c0.1,0,0.1,0,0.2,0.4c0.1,0.4,1.7,4.4,2.3,5.9c0.4,0.9,0.6,1,0.8,1.1
			c0.1,0,0.3,0.1,0.4,0.1c0.1,0,0.1,0,0.1,0.1c0,0.1-0.1,0.1-0.2,0.1c-0.1,0-0.9,0-1.5,0c-0.2,0-0.3,0-0.3-0.1c0,0,0-0.1,0.1-0.1
			c0.1,0,0.1-0.1,0.1-0.3l-0.9-2.4c0,0,0-0.1-0.1-0.1h-2.1c0,0-0.1,0-0.1,0.1l-0.6,1.7c-0.1,0.2-0.1,0.5-0.1,0.7
			c0,0.2,0.2,0.3,0.4,0.3h0.1c0.1,0,0.1,0,0.1,0.1c0,0.1-0.1,0.1-0.1,0.1c-0.2,0-0.7,0-0.8,0s-0.6,0-1.1,0c-0.1,0-0.2,0-0.2-0.1
			c0,0,0-0.1,0.1-0.1c0.1,0,0.2,0,0.3,0c0.5-0.1,0.6-0.4,0.8-0.9L124.8,26.4z M125.9,30.3C125.9,30.3,125.9,30.3,125.9,30.3
			l-0.9-2.7c0-0.1-0.1-0.1-0.1,0l-0.9,2.6c0,0,0,0.1,0,0.1H125.9z"/>
		<path class="st1" d="M130.9,31c0-0.5-0.1-0.7-0.2-1c-0.1-0.2-1.4-2.3-1.7-2.8c-0.2-0.4-0.5-0.6-0.7-0.7c-0.1-0.1-0.3-0.2-0.4-0.2
			c0,0-0.1,0-0.1-0.1c0,0,0-0.1,0.1-0.1c0.2,0,0.9,0,1,0c0.1,0,0.4,0,0.8,0c0.1,0,0.1,0,0.1,0.1s-0.1,0-0.1,0.1
			c-0.1,0-0.1,0.1-0.1,0.2c0,0.1,0,0.2,0.1,0.4c0.2,0.3,1.6,2.8,1.8,3.1c0.2-0.4,1.4-2.6,1.6-2.9c0.1-0.2,0.2-0.4,0.2-0.5
			c0-0.1,0-0.2-0.2-0.3c-0.1,0-0.1,0-0.1-0.1c0,0,0.1-0.1,0.2-0.1c0.3,0,0.6,0,0.6,0c0.1,0,0.8,0,1,0c0.1,0,0.1,0,0.1,0.1
			c0,0,0,0.1-0.1,0.1c-0.1,0-0.3,0-0.5,0.1c-0.2,0.1-0.3,0.2-0.5,0.5c-0.3,0.4-1.7,2.7-1.9,3.1c-0.1,0.4-0.1,0.7-0.1,1v0.8
			c0,0.2,0,0.6,0,1c0,0.3,0.1,0.5,0.4,0.5c0.1,0,0.4,0,0.4,0c0.1,0,0.1,0,0.1,0.1c0,0,0,0.1-0.2,0.1c-0.5,0-1.2,0-1.2,0
			c0,0-0.7,0-1,0c-0.1,0-0.2,0-0.2-0.1c0,0,0-0.1,0.1-0.1c0.1,0,0.2,0,0.3,0c0.2,0,0.3-0.3,0.3-0.5c0-0.4,0-0.8,0-1V31z"/>
		<path class="st1" d="M137.2,26.4c0.1-0.3,0.2-0.4,0.2-0.4c0.1,0,0.1,0,0.2,0.4c0.1,0.4,1.7,4.4,2.3,5.9c0.4,0.9,0.6,1,0.8,1.1
			c0.1,0,0.3,0.1,0.4,0.1c0.1,0,0.1,0,0.1,0.1c0,0.1-0.1,0.1-0.2,0.1c-0.1,0-0.9,0-1.5,0c-0.2,0-0.3,0-0.3-0.1c0,0,0-0.1,0.1-0.1
			c0.1,0,0.1-0.1,0.1-0.3l-0.9-2.4c0,0,0-0.1-0.1-0.1h-2.1c0,0-0.1,0-0.1,0.1l-0.6,1.7c-0.1,0.2-0.1,0.5-0.1,0.7
			c0,0.2,0.2,0.3,0.4,0.3h0.1c0.1,0,0.1,0,0.1,0.1c0,0.1-0.1,0.1-0.1,0.1c-0.2,0-0.7,0-0.8,0s-0.6,0-1.1,0c-0.1,0-0.2,0-0.2-0.1
			c0,0,0-0.1,0.1-0.1c0.1,0,0.2,0,0.3,0c0.5-0.1,0.6-0.4,0.8-0.9L137.2,26.4z M138.2,30.3C138.3,30.3,138.3,30.3,138.2,30.3
			l-0.9-2.7c0-0.1-0.1-0.1-0.1,0l-0.9,2.6c0,0,0,0.1,0,0.1H138.2z"/>
		<path class="st1" d="M142.1,33.5c-0.1-0.1-0.1-0.1-0.1-0.4c0-0.5,0-0.9,0-1c0-0.1,0-0.2,0.1-0.2c0.1,0,0.1,0,0.1,0.1
			c0,0.1,0,0.2,0,0.4c0.1,0.7,0.8,1,1.5,1c0.9,0,1.4-0.7,1.4-1.3c0-0.7-0.3-1.1-1.1-1.8l-0.4-0.4c-1-0.9-1.3-1.5-1.3-2.1
			c0-1,0.8-1.8,2-1.8c0.4,0,0.7,0,0.9,0.1c0.2,0,0.3,0,0.3,0s0.1,0,0.1,0.1s0,0.4,0,1c0,0.2,0,0.2-0.1,0.2c-0.1,0-0.1,0-0.1-0.1
			c0-0.1-0.1-0.4-0.1-0.5c-0.1-0.1-0.3-0.5-1.2-0.5c-0.7,0-1.2,0.4-1.2,1.1c0,0.6,0.3,0.9,1.2,1.6l0.3,0.2c1.2,0.9,1.4,1.5,1.4,2.3
			c0,0.4-0.2,1.1-0.8,1.6c-0.4,0.3-1,0.4-1.5,0.4C143,33.7,142.5,33.6,142.1,33.5z"/>
		<path class="st1" d="M149.7,26.4c0.1-0.3,0.2-0.4,0.2-0.4c0.1,0,0.1,0,0.2,0.4c0.1,0.4,1.7,4.4,2.3,5.9c0.4,0.9,0.6,1,0.8,1.1
			c0.1,0,0.3,0.1,0.4,0.1c0.1,0,0.1,0,0.1,0.1c0,0.1-0.1,0.1-0.2,0.1c-0.1,0-0.9,0-1.5,0c-0.2,0-0.3,0-0.3-0.1c0,0,0-0.1,0.1-0.1
			c0.1,0,0.1-0.1,0.1-0.3l-0.9-2.4c0,0,0-0.1-0.1-0.1h-2.1c0,0-0.1,0-0.1,0.1l-0.6,1.7c-0.1,0.2-0.1,0.5-0.1,0.7
			c0,0.2,0.2,0.3,0.4,0.3h0.1c0.1,0,0.1,0,0.1,0.1c0,0.1-0.1,0.1-0.1,0.1c-0.2,0-0.7,0-0.8,0s-0.6,0-1.1,0c-0.1,0-0.2,0-0.2-0.1
			c0,0,0-0.1,0.1-0.1c0.1,0,0.2,0,0.3,0c0.5-0.1,0.6-0.4,0.8-0.9L149.7,26.4z M150.8,30.3C150.8,30.3,150.8,30.3,150.8,30.3
			l-0.9-2.7c0-0.1-0.1-0.1-0.1,0l-0.9,2.6c0,0,0,0.1,0,0.1H150.8z"/>
		<path class="st1" d="M155.5,32.2c0,0.8,0.1,1.1,0.4,1.1c0.2,0,0.4,0.1,0.5,0.1c0,0,0.1,0,0.1,0.1c0,0.1-0.1,0.1-0.2,0.1
			c-0.6,0-1,0-1,0s-0.5,0-0.9,0c-0.1,0-0.2,0-0.2-0.1c0,0,0-0.1,0.1-0.1c0.1,0,0.3,0,0.4-0.1c0.2-0.1,0.3-0.4,0.3-1.2l0-5.6
			c0-0.4,0-0.5,0.1-0.5c0.1,0,0.2,0.2,0.3,0.3c0.1,0.2,1.6,1.7,3.1,3.4c1,1,2,2.2,2.4,2.6l-0.1-5c0-0.6-0.1-0.9-0.4-0.9
			c-0.2,0-0.4,0-0.5,0c-0.1,0-0.1,0-0.1-0.1c0-0.1,0.1-0.1,0.2-0.1c0.4,0,0.9,0,1,0s0.4,0,0.8,0c0.1,0,0.2,0,0.2,0.1
			c0,0,0,0.1-0.1,0.1c0,0-0.1,0-0.2,0c-0.3,0.1-0.4,0.3-0.4,0.9l0,5.7c0,0.6,0,0.7-0.1,0.7c-0.1,0-0.2-0.1-0.7-0.6
			c-0.1-0.1-1.5-1.5-2.6-2.7c-1.1-1.2-2.2-2.5-2.6-2.8L155.5,32.2z"/>
		<path class="st1" d="M167.7,29c0-1.5,0-1.8,0-2.1c0-0.3-0.1-0.5-0.4-0.6c-0.1,0-0.2,0-0.3,0c0,0-0.1,0-0.1-0.1
			c0-0.1,0-0.1,0.2-0.1c0.4,0,1,0,1.1,0c0.2,0,0.8,0,1.2,0c1.2,0,1.7,0.4,1.8,0.6c0.2,0.2,0.5,0.6,0.5,1.2c0,1.4-1,2.3-2.4,2.3
			c0,0-0.2,0-0.2,0c0,0-0.1,0-0.1-0.1c0-0.1,0.1-0.1,0.3-0.1c1,0,1.7-0.7,1.7-1.6c0-0.3,0-1-0.5-1.5c-0.5-0.5-1.1-0.5-1.3-0.5
			c-0.2,0-0.3,0-0.4,0.1c-0.1,0-0.1,0.1-0.1,0.2v4c0,0.9,0,1.7,0,2.1c0,0.3,0.1,0.5,0.4,0.5c0.1,0,0.4,0,0.4,0c0.1,0,0.1,0,0.1,0.1
			c0,0,0,0.1-0.2,0.1c-0.5,0-1.2,0-1.2,0c0,0-0.6,0-0.9,0c-0.1,0-0.2,0-0.2-0.1c0,0,0-0.1,0.1-0.1c0.1,0,0.2,0,0.3,0
			c0.2,0,0.2-0.3,0.3-0.5c0-0.4,0-1.2,0-2.1V29z"/>
		<path class="st1" d="M173.8,29c0-1.5,0-1.8,0-2.1c0-0.3-0.1-0.5-0.4-0.6c-0.1,0-0.2,0-0.3,0c0,0-0.1,0-0.1-0.1
			c0-0.1,0-0.1,0.2-0.1c0.2,0,0.5,0,0.7,0l0.4,0c0.1,0,2,0,2.2,0c0.2,0,0.3,0,0.4,0c0,0,0.1,0,0.1,0c0,0,0,0,0,0.1
			c0,0.1,0,0.2-0.1,0.5c0,0.1,0,0.5,0,0.6c0,0,0,0.1-0.1,0.1c-0.1,0-0.1,0-0.1-0.1c0-0.1,0-0.2-0.1-0.4c-0.1-0.2-0.2-0.3-0.7-0.3
			c-0.2,0-1.2,0-1.3,0c0,0-0.1,0-0.1,0.1v2.7c0,0.1,0,0.1,0.1,0.1c0.1,0,1.3,0,1.6,0c0.2,0,0.4,0,0.5-0.1c0.1-0.1,0.1-0.1,0.1-0.1
			c0,0,0,0,0,0.1c0,0.1,0,0.2-0.1,0.5c0,0.2,0,0.6,0,0.6c0,0.1,0,0.2-0.1,0.2c0,0-0.1,0-0.1-0.1c0-0.1,0-0.2,0-0.3
			c0-0.1-0.1-0.3-0.5-0.3c-0.3,0-1.2,0-1.4,0c0,0-0.1,0-0.1,0.1v0.9c0,0.3,0,1.5,0,1.7c0,0.7,0.2,0.8,1.1,0.8c0.3,0,0.7,0,0.9-0.1
			c0.3-0.1,0.4-0.3,0.4-0.7c0-0.1,0-0.1,0.1-0.1c0.1,0,0.1,0.1,0.1,0.1c0,0.1-0.1,0.7-0.1,1c-0.1,0.3-0.1,0.3-0.5,0.3
			c-0.7,0-1.3,0-1.7,0c-0.4,0-0.6,0-0.8,0c0,0-0.2,0-0.4,0c-0.2,0-0.4,0-0.6,0c-0.1,0-0.2,0-0.2-0.1c0,0,0-0.1,0.1-0.1
			c0.1,0,0.2,0,0.3,0c0.2,0,0.2-0.3,0.3-0.5c0-0.4,0-1.2,0-2.1V29z"/>
		<path class="st1" d="M179.8,29c0-1.5,0-1.8,0-2.1c0-0.3-0.1-0.5-0.4-0.6c-0.1,0-0.2,0-0.3,0c0,0-0.1,0-0.1-0.1
			c0-0.1,0-0.1,0.2-0.1c0.4,0,1.1,0,1.1,0c0.1,0,0.9,0,1.2,0c0.6,0,1.3,0.1,1.8,0.4c0.2,0.2,0.7,0.7,0.7,1.3c0,0.7-0.3,1.5-1.2,2.3
			c0.8,1,1.5,1.9,2,2.5c0.5,0.6,1,0.7,1.2,0.7c0.2,0,0.3,0,0.4,0c0,0,0.1,0,0.1,0.1c0,0.1-0.1,0.1-0.2,0.1h-0.7
			c-0.5,0-0.8,0-1.1-0.2c-0.4-0.2-0.8-0.7-1.3-1.4c-0.4-0.5-0.9-1.2-1.1-1.5c0,0-0.1-0.1-0.1-0.1l-1.2,0c0,0-0.1,0-0.1,0.1v0.2
			c0,0.9,0,1.7,0,2.1c0,0.3,0.1,0.5,0.4,0.5c0.1,0,0.4,0,0.4,0c0.1,0,0.1,0,0.1,0.1c0,0,0,0.1-0.2,0.1c-0.5,0-1.2,0-1.2,0
			c0,0-0.6,0-0.9,0c-0.1,0-0.2,0-0.2-0.1c0,0,0-0.1,0.1-0.1c0.1,0,0.2,0,0.3,0c0.2,0,0.2-0.3,0.3-0.5c0-0.4,0-1.2,0-2.1V29z
			 M180.6,29.9c0,0,0,0.1,0.1,0.1c0.1,0.1,0.6,0.2,1,0.2c0.2,0,0.5,0,0.7-0.2c0.3-0.2,0.6-0.8,0.6-1.5c0-1.2-0.6-2-1.7-2
			c-0.3,0-0.6,0-0.7,0.1c0,0-0.1,0.1-0.1,0.1V29.9z"/>
		<path class="st1" d="M192,31.1c0-0.8,0-0.9-0.4-1c-0.1,0-0.2,0-0.3,0c0,0-0.1,0-0.1-0.1c0-0.1,0-0.1,0.2-0.1c0.4,0,1.1,0,1.1,0
			c0,0,0.7,0,1,0c0.1,0,0.2,0,0.2,0.1c0,0,0,0.1-0.1,0.1c-0.1,0-0.1,0-0.2,0c-0.3,0-0.3,0.2-0.4,0.6c0,0.3,0,0.6,0,1v1.1
			c0,0.4,0,0.5-0.1,0.5c-0.6,0.3-1.5,0.4-2.1,0.4c-0.7,0-2.1-0.1-3.2-1c-0.6-0.5-1.2-1.6-1.2-2.8c0-1.6,0.8-2.7,1.6-3.2
			c0.9-0.5,1.9-0.6,2.6-0.6c0.6,0,1.3,0.1,1.5,0.2c0.2,0,0.5,0.1,0.8,0.1c0.1,0,0.1,0,0.1,0.1c0,0.1-0.1,0.4-0.1,1.4
			c0,0.2,0,0.2-0.1,0.2c0,0-0.1-0.1-0.1-0.1c0-0.1-0.1-0.4-0.2-0.6c-0.2-0.4-1-0.8-2.3-0.8c-0.6,0-1.4,0.1-2.1,0.6
			c-0.6,0.5-1,1.3-1,2.5c0,1.4,0.7,2.4,1,2.7c0.8,0.8,1.7,1,2.6,1c0.4,0,0.9-0.1,1.1-0.2c0.1-0.1,0.2-0.2,0.2-0.3V31.1z"/>
		<path class="st1" d="M195.2,29c0-1.5,0-1.8,0-2.1c0-0.3-0.1-0.5-0.4-0.6c-0.1,0-0.2,0-0.3,0c0,0-0.1,0-0.1-0.1
			c0-0.1,0-0.1,0.2-0.1c0.4,0,1,0,1.1,0c0.1,0,0.7,0,1,0c0.1,0,0.2,0,0.2,0.1c0,0,0,0.1-0.1,0.1c-0.1,0-0.1,0-0.2,0
			c-0.3,0-0.3,0.2-0.4,0.6c0,0.3,0,0.6,0,2.1v1.4c0,1.4,0.3,2,0.7,2.4c0.5,0.5,0.9,0.5,1.5,0.5c0.6,0,1.2-0.3,1.5-0.7
			c0.5-0.6,0.6-1.4,0.6-2.4V29c0-1.5,0-1.8,0-2.1c0-0.3-0.1-0.5-0.4-0.6c-0.1,0-0.2,0-0.3,0c0,0-0.1,0-0.1-0.1c0-0.1,0-0.1,0.2-0.1
			c0.4,0,1,0,1,0c0.1,0,0.5,0,0.8,0c0.1,0,0.2,0,0.2,0.1c0,0,0,0.1-0.1,0.1c-0.1,0-0.1,0-0.2,0c-0.3,0.1-0.3,0.2-0.4,0.6
			c0,0.3,0,0.6,0,2.1v1c0,1.1-0.1,2.2-0.9,2.9c-0.7,0.6-1.4,0.7-2,0.7c-0.3,0-1.3,0-2-0.7c-0.5-0.5-0.9-1.1-0.9-2.6V29z"/>
		<path class="st1" d="M203.9,29c0-1.5,0-1.8,0-2.1c0-0.3-0.1-0.5-0.4-0.6c-0.1,0-0.2,0-0.3,0c0,0-0.1,0-0.1-0.1
			c0-0.1,0-0.1,0.2-0.1c0.4,0,1.1,0,1.1,0c0.1,0,0.9,0,1.2,0c0.6,0,1.3,0.1,1.8,0.4c0.2,0.2,0.7,0.7,0.7,1.3c0,0.7-0.3,1.5-1.2,2.3
			c0.8,1,1.5,1.9,2,2.5c0.5,0.6,1,0.7,1.2,0.7c0.2,0,0.3,0,0.4,0c0,0,0.1,0,0.1,0.1c0,0.1-0.1,0.1-0.2,0.1h-0.7
			c-0.5,0-0.8,0-1.1-0.2c-0.4-0.2-0.8-0.7-1.3-1.4c-0.4-0.5-0.9-1.2-1.1-1.5c0,0-0.1-0.1-0.1-0.1l-1.2,0c0,0-0.1,0-0.1,0.1v0.2
			c0,0.9,0,1.7,0,2.1c0,0.3,0.1,0.5,0.4,0.5c0.1,0,0.4,0,0.4,0c0.1,0,0.1,0,0.1,0.1c0,0,0,0.1-0.2,0.1c-0.5,0-1.2,0-1.2,0
			c0,0-0.6,0-0.9,0c-0.1,0-0.2,0-0.2-0.1c0,0,0-0.1,0.1-0.1c0.1,0,0.2,0,0.3,0c0.2,0,0.2-0.3,0.3-0.5c0-0.4,0-1.2,0-2.1V29z
			 M204.7,29.9c0,0,0,0.1,0.1,0.1c0.1,0.1,0.6,0.2,1,0.2c0.2,0,0.5,0,0.7-0.2c0.3-0.2,0.6-0.8,0.6-1.5c0-1.2-0.6-2-1.7-2
			c-0.3,0-0.6,0-0.7,0.1c0,0-0.1,0.1-0.1,0.1V29.9z"/>
		<path class="st1" d="M210.8,29c0-1.5,0-1.8,0-2.1c0-0.3-0.1-0.5-0.4-0.6c-0.1,0-0.2,0-0.3,0c0,0-0.1,0-0.1-0.1
			c0-0.1,0-0.1,0.2-0.1c0.4,0,1,0,1.1,0c0.1,0,0.7,0,1,0c0.1,0,0.2,0,0.2,0.1c0,0,0,0.1-0.1,0.1c-0.1,0-0.1,0-0.2,0
			c-0.3,0-0.3,0.2-0.4,0.6c0,0.3,0,0.6,0,2.1v1.4c0,1.4,0.3,2,0.7,2.4c0.5,0.5,0.9,0.5,1.5,0.5c0.6,0,1.2-0.3,1.5-0.7
			c0.5-0.6,0.6-1.4,0.6-2.4V29c0-1.5,0-1.8,0-2.1c0-0.3-0.1-0.5-0.4-0.6c-0.1,0-0.2,0-0.3,0c0,0-0.1,0-0.1-0.1c0-0.1,0-0.1,0.2-0.1
			c0.4,0,1,0,1,0c0.1,0,0.5,0,0.8,0c0.1,0,0.2,0,0.2,0.1c0,0,0,0.1-0.1,0.1c-0.1,0-0.1,0-0.2,0c-0.3,0.1-0.3,0.2-0.4,0.6
			c0,0.3,0,0.6,0,2.1v1c0,1.1-0.1,2.2-0.9,2.9c-0.7,0.6-1.4,0.7-2,0.7c-0.3,0-1.3,0-2-0.7c-0.5-0.5-0.9-1.1-0.9-2.6V29z"/>
		<path class="st1" d="M220.7,26.4c0.1-0.3,0.2-0.4,0.2-0.4s0.1,0,0.2,0.4c0.1,0.4,1.7,4.4,2.3,5.9c0.4,0.9,0.6,1,0.8,1.1
			c0.1,0,0.3,0.1,0.4,0.1c0.1,0,0.1,0,0.1,0.1c0,0.1-0.1,0.1-0.2,0.1c-0.1,0-0.9,0-1.5,0c-0.2,0-0.3,0-0.3-0.1c0,0,0-0.1,0.1-0.1
			c0.1,0,0.1-0.1,0.1-0.3l-0.9-2.4c0,0,0-0.1-0.1-0.1h-2.1c0,0-0.1,0-0.1,0.1l-0.6,1.7c-0.1,0.2-0.1,0.5-0.1,0.7
			c0,0.2,0.2,0.3,0.4,0.3h0.1c0.1,0,0.1,0,0.1,0.1c0,0.1-0.1,0.1-0.1,0.1c-0.2,0-0.7,0-0.8,0c-0.1,0-0.6,0-1.1,0
			c-0.1,0-0.2,0-0.2-0.1c0,0,0-0.1,0.1-0.1c0.1,0,0.2,0,0.3,0c0.5-0.1,0.6-0.4,0.8-0.9L220.7,26.4z M221.7,30.3
			C221.8,30.3,221.8,30.3,221.7,30.3l-0.9-2.7c0-0.1-0.1-0.1-0.1,0l-0.9,2.6c0,0,0,0.1,0,0.1H221.7z"/>
		<path class="st1" d="M226.4,32.2c0,0.8,0.1,1.1,0.4,1.1c0.2,0,0.4,0.1,0.5,0.1c0,0,0.1,0,0.1,0.1c0,0.1-0.1,0.1-0.2,0.1
			c-0.6,0-1,0-1,0s-0.5,0-0.9,0c-0.1,0-0.2,0-0.2-0.1c0,0,0-0.1,0.1-0.1c0.1,0,0.3,0,0.4-0.1c0.2-0.1,0.3-0.4,0.3-1.2l0-5.6
			c0-0.4,0-0.5,0.1-0.5c0.1,0,0.2,0.2,0.3,0.3c0.1,0.2,1.6,1.7,3.1,3.4c1,1,2,2.2,2.4,2.6l-0.1-5c0-0.6-0.1-0.9-0.4-0.9
			c-0.2,0-0.4,0-0.5,0c-0.1,0-0.1,0-0.1-0.1c0-0.1,0.1-0.1,0.2-0.1c0.4,0,0.9,0,1,0c0.1,0,0.4,0,0.8,0c0.1,0,0.2,0,0.2,0.1
			c0,0,0,0.1-0.1,0.1c0,0-0.1,0-0.2,0c-0.3,0.1-0.4,0.3-0.4,0.9l0,5.7c0,0.6,0,0.7-0.1,0.7c-0.1,0-0.2-0.1-0.7-0.6
			c-0.1-0.1-1.5-1.5-2.6-2.7c-1.1-1.2-2.2-2.5-2.6-2.8L226.4,32.2z"/>
		<path class="st1" d="M240.7,30.7c0,0.9,0,1.7,0,2.1c0,0.3,0.1,0.5,0.4,0.5c0.1,0,0.4,0,0.4,0c0.1,0,0.1,0,0.1,0.1
			c0,0,0,0.1-0.2,0.1c-0.5,0-1.2,0-1.2,0s-0.7,0-1,0c-0.1,0-0.2,0-0.2-0.1c0,0,0-0.1,0.1-0.1c0.1,0,0.2,0,0.3,0
			c0.2,0,0.2-0.3,0.3-0.5c0-0.4,0-1.2,0-2.1v-4.2l-1.5,0c-0.6,0-0.8,0.1-1,0.3c-0.1,0.2-0.1,0.2-0.2,0.3c0,0.1-0.1,0.1-0.1,0.1
			c0,0,0,0,0-0.1c0-0.1,0.2-0.9,0.2-1c0-0.1,0.1-0.2,0.1-0.2c0.1,0,0.2,0.1,0.4,0.1c0.3,0,0.7,0,0.8,0h3.7c0.3,0,0.5,0,0.7,0
			c0.1,0,0.2,0,0.3,0c0,0,0,0.1,0,0.1c0,0.3,0,1,0,1.1c0,0.1,0,0.1-0.1,0.1c0,0-0.1,0-0.1-0.2l0-0.1c0-0.3-0.3-0.5-1.2-0.5l-1.2,0
			V30.7z"/>
		<path class="st1" d="M246.2,30.7c0,0.9,0,1.7,0,2.1c0,0.3,0.1,0.5,0.4,0.5c0.1,0,0.4,0,0.4,0c0.1,0,0.1,0,0.1,0.1
			c0,0,0,0.1-0.2,0.1c-0.5,0-1.2,0-1.2,0c0,0-0.7,0-1,0c-0.1,0-0.2,0-0.2-0.1c0,0,0-0.1,0.1-0.1c0.1,0,0.2,0,0.3,0
			c0.2,0,0.2-0.3,0.3-0.5c0-0.4,0-1.2,0-2.1V29c0-1.5,0-1.8,0-2.1c0-0.3-0.1-0.5-0.3-0.5c-0.1,0-0.2,0-0.3,0c0,0-0.1,0-0.1-0.1
			c0-0.1,0-0.1,0.2-0.1c0.3,0,0.9,0,1,0c0,0,0.7,0,1,0c0.1,0,0.2,0,0.2,0.1c0,0,0,0.1-0.1,0.1c-0.1,0-0.1,0-0.2,0
			c-0.3,0-0.3,0.2-0.4,0.6c0,0.3,0,0.6,0,2.1V30.7z"/>
		<path class="st1" d="M250,32.2c0,0.8,0.1,1.1,0.4,1.1c0.2,0,0.4,0.1,0.5,0.1c0,0,0.1,0,0.1,0.1c0,0.1-0.1,0.1-0.2,0.1
			c-0.6,0-1,0-1,0c-0.1,0-0.5,0-0.9,0c-0.1,0-0.2,0-0.2-0.1c0,0,0-0.1,0.1-0.1c0.1,0,0.3,0,0.4-0.1c0.2-0.1,0.3-0.4,0.3-1.2l0-5.6
			c0-0.4,0-0.5,0.1-0.5c0.1,0,0.2,0.2,0.3,0.3c0.1,0.2,1.6,1.7,3.1,3.4c1,1,2,2.2,2.4,2.6l-0.1-5c0-0.6-0.1-0.9-0.4-0.9
			c-0.2,0-0.4,0-0.5,0c-0.1,0-0.1,0-0.1-0.1c0-0.1,0.1-0.1,0.2-0.1c0.4,0,0.9,0,1,0s0.4,0,0.8,0c0.1,0,0.2,0,0.2,0.1
			c0,0,0,0.1-0.1,0.1c0,0-0.1,0-0.2,0c-0.3,0.1-0.4,0.3-0.4,0.9l0,5.7c0,0.6,0,0.7-0.1,0.7c-0.1,0-0.2-0.1-0.7-0.6
			c-0.1-0.1-1.5-1.5-2.6-2.7c-1.1-1.2-2.2-2.5-2.6-2.8L250,32.2z"/>
		<path class="st1" d="M263.5,31.1c0-0.8,0-0.9-0.4-1c-0.1,0-0.2,0-0.3,0c0,0-0.1,0-0.1-0.1c0-0.1,0-0.1,0.2-0.1c0.4,0,1.1,0,1.1,0
			s0.7,0,1,0c0.1,0,0.2,0,0.2,0.1c0,0,0,0.1-0.1,0.1c-0.1,0-0.1,0-0.2,0c-0.3,0-0.3,0.2-0.4,0.6c0,0.3,0,0.6,0,1v1.1
			c0,0.4,0,0.5-0.1,0.5c-0.6,0.3-1.5,0.4-2.1,0.4c-0.7,0-2.1-0.1-3.2-1c-0.6-0.5-1.2-1.6-1.2-2.8c0-1.6,0.8-2.7,1.6-3.2
			c0.9-0.5,1.9-0.6,2.6-0.6c0.6,0,1.3,0.1,1.5,0.2c0.2,0,0.5,0.1,0.8,0.1c0.1,0,0.1,0,0.1,0.1c0,0.1-0.1,0.4-0.1,1.4
			c0,0.2,0,0.2-0.1,0.2c0,0-0.1-0.1-0.1-0.1c0-0.1-0.1-0.4-0.2-0.6c-0.2-0.4-1-0.8-2.3-0.8c-0.6,0-1.4,0.1-2.1,0.6
			c-0.6,0.5-1,1.3-1,2.5c0,1.4,0.7,2.4,1,2.7c0.8,0.8,1.7,1,2.6,1c0.4,0,0.9-0.1,1.1-0.2c0.1-0.1,0.2-0.2,0.2-0.3V31.1z"/>
		<path class="st1" d="M272,31.1c0-0.8,0-0.9-0.4-1c-0.1,0-0.2,0-0.3,0c0,0-0.1,0-0.1-0.1c0-0.1,0-0.1,0.2-0.1c0.4,0,1.1,0,1.1,0
			c0,0,0.7,0,1,0c0.1,0,0.2,0,0.2,0.1c0,0,0,0.1-0.1,0.1c-0.1,0-0.1,0-0.2,0c-0.3,0-0.3,0.2-0.4,0.6c0,0.3,0,0.6,0,1v1.1
			c0,0.4,0,0.5-0.1,0.5c-0.6,0.3-1.5,0.4-2.1,0.4c-0.7,0-2.1-0.1-3.2-1c-0.6-0.5-1.2-1.6-1.2-2.8c0-1.6,0.8-2.7,1.6-3.2
			c0.9-0.5,1.9-0.6,2.6-0.6c0.6,0,1.3,0.1,1.5,0.2c0.2,0,0.5,0.1,0.8,0.1c0.1,0,0.1,0,0.1,0.1c0,0.1-0.1,0.4-0.1,1.4
			c0,0.2,0,0.2-0.1,0.2c0,0-0.1-0.1-0.1-0.1c0-0.1-0.1-0.4-0.2-0.6c-0.2-0.4-1-0.8-2.3-0.8c-0.6,0-1.4,0.1-2.1,0.6
			c-0.6,0.5-1,1.3-1,2.5c0,1.4,0.7,2.4,1,2.7c0.8,0.8,1.7,1,2.6,1c0.4,0,0.9-0.1,1.1-0.2c0.1-0.1,0.2-0.2,0.2-0.3V31.1z"/>
		<path class="st1" d="M276.6,30.7c0,0.9,0,1.7,0,2.1c0,0.3,0.1,0.5,0.4,0.5c0.1,0,0.4,0,0.4,0c0.1,0,0.1,0,0.1,0.1
			c0,0,0,0.1-0.2,0.1c-0.5,0-1.2,0-1.2,0s-0.7,0-1,0c-0.1,0-0.2,0-0.2-0.1c0,0,0-0.1,0.1-0.1c0.1,0,0.2,0,0.3,0
			c0.2,0,0.2-0.3,0.3-0.5c0-0.4,0-1.2,0-2.1V29c0-1.5,0-1.8,0-2.1c0-0.3-0.1-0.5-0.3-0.5c-0.1,0-0.2,0-0.3,0c0,0-0.1,0-0.1-0.1
			c0-0.1,0-0.1,0.2-0.1c0.3,0,0.9,0,1,0s0.7,0,1,0c0.1,0,0.2,0,0.2,0.1c0,0,0,0.1-0.1,0.1c-0.1,0-0.1,0-0.2,0
			c-0.3,0-0.3,0.2-0.4,0.6c0,0.3,0,0.6,0,2.1V30.7z"/>
		<path class="st1" d="M284.1,30.7c0,0.9,0,1.7,0,2.1c0,0.3,0.1,0.5,0.4,0.5c0.1,0,0.4,0,0.4,0c0.1,0,0.1,0,0.1,0.1
			c0,0,0,0.1-0.2,0.1c-0.5,0-1.2,0-1.2,0s-0.7,0-1,0c-0.1,0-0.2,0-0.2-0.1c0,0,0-0.1,0.1-0.1c0.1,0,0.2,0,0.3,0
			c0.2,0,0.2-0.3,0.3-0.5c0-0.4,0-1.2,0-2.1V29c0-1.5,0-1.8,0-2.1c0-0.3-0.1-0.5-0.3-0.5c-0.1,0-0.2,0-0.3,0c0,0-0.1,0-0.1-0.1
			c0-0.1,0-0.1,0.2-0.1c0.3,0,0.9,0,1,0s0.7,0,1,0c0.1,0,0.2,0,0.2,0.1c0,0,0,0.1-0.1,0.1c-0.1,0-0.1,0-0.2,0
			c-0.3,0-0.3,0.2-0.4,0.6c0,0.3,0,0.6,0,2.1V30.7z"/>
		<path class="st1" d="M287,33.5c-0.1-0.1-0.1-0.1-0.1-0.4c0-0.5,0-0.9,0-1c0-0.1,0-0.2,0.1-0.2c0.1,0,0.1,0,0.1,0.1
			c0,0.1,0,0.2,0,0.4c0.1,0.7,0.8,1,1.5,1c0.9,0,1.4-0.7,1.4-1.3c0-0.7-0.3-1.1-1.1-1.8l-0.4-0.4c-1-0.9-1.3-1.5-1.3-2.1
			c0-1,0.8-1.8,2-1.8c0.4,0,0.7,0,0.9,0.1c0.2,0,0.3,0,0.3,0s0.1,0,0.1,0.1s0,0.4,0,1c0,0.2,0,0.2-0.1,0.2c-0.1,0-0.1,0-0.1-0.1
			c0-0.1-0.1-0.4-0.1-0.5c-0.1-0.1-0.3-0.5-1.2-0.5c-0.7,0-1.2,0.4-1.2,1.1c0,0.6,0.3,0.9,1.2,1.6l0.3,0.2c1.2,0.9,1.4,1.5,1.4,2.3
			c0,0.4-0.2,1.1-0.8,1.6c-0.4,0.3-1,0.4-1.5,0.4C287.8,33.7,287.4,33.6,287,33.5z"/>
		<path class="st1" d="M294,30.8c0,1.4,0,2.1,0.2,2.2c0.2,0.2,0.4,0.2,1.2,0.2c0.5,0,1,0,1.2-0.3c0.1-0.2,0.2-0.4,0.3-0.6
			c0-0.1,0-0.1,0.1-0.1c0,0,0.1,0,0.1,0.1c0,0.1-0.1,0.7-0.1,1c-0.1,0.2-0.1,0.3-0.6,0.3c-0.7,0-1.2,0-1.6,0c-0.4,0-0.7,0-1,0
			c0,0-0.2,0-0.4,0c-0.2,0-0.4,0-0.6,0c-0.1,0-0.2,0-0.2-0.1c0,0,0-0.1,0.1-0.1c0.1,0,0.2,0,0.3,0c0.2,0,0.2-0.3,0.3-0.5
			c0-0.4,0-1.2,0-2.1V29c0-1.5,0-1.8,0-2.1c0-0.3-0.1-0.5-0.4-0.6c-0.1,0-0.2,0-0.3,0c0,0-0.1,0-0.1-0.1c0-0.1,0-0.1,0.2-0.1
			c0.4,0,1.1,0,1.1,0c0,0,0.8,0,1.1,0c0.1,0,0.2,0,0.2,0.1c0,0,0,0.1-0.1,0.1c-0.1,0-0.2,0-0.3,0c-0.3,0-0.4,0.2-0.4,0.6
			c0,0.3,0,0.6,0,2.1V30.8z"/>
		<path class="st1" d="M300.5,26.4c0.1-0.3,0.2-0.4,0.2-0.4c0.1,0,0.1,0,0.2,0.4c0.1,0.4,1.7,4.4,2.3,5.9c0.4,0.9,0.6,1,0.8,1.1
			c0.1,0,0.3,0.1,0.4,0.1c0.1,0,0.1,0,0.1,0.1c0,0.1-0.1,0.1-0.2,0.1c-0.1,0-0.9,0-1.5,0c-0.2,0-0.3,0-0.3-0.1c0,0,0-0.1,0.1-0.1
			c0.1,0,0.1-0.1,0.1-0.3l-0.9-2.4c0,0,0-0.1-0.1-0.1h-2.1c0,0-0.1,0-0.1,0.1l-0.6,1.7c-0.1,0.2-0.1,0.5-0.1,0.7
			c0,0.2,0.2,0.3,0.4,0.3h0.1c0.1,0,0.1,0,0.1,0.1c0,0.1-0.1,0.1-0.1,0.1c-0.2,0-0.7,0-0.8,0c-0.1,0-0.6,0-1.1,0
			c-0.1,0-0.2,0-0.2-0.1c0,0,0-0.1,0.1-0.1c0.1,0,0.2,0,0.3,0c0.5-0.1,0.6-0.4,0.8-0.9L300.5,26.4z M301.5,30.3
			C301.6,30.3,301.6,30.3,301.5,30.3l-0.9-2.7c0-0.1-0.1-0.1-0.1,0l-0.9,2.6c0,0,0,0.1,0,0.1H301.5z"/>
		<path class="st1" d="M313.5,32.3c0,0.4,0.1,0.9,0.5,1c0.3,0.1,0.5,0.1,0.6,0.1c0,0,0.1,0,0.1,0c0,0.1-0.1,0.1-0.2,0.1
			c-0.2,0-1.3,0-1.6-0.1c-0.2,0-0.3,0-0.3-0.1c0,0,0-0.1,0.1-0.1c0,0,0.1-0.2,0-0.4l-0.5-5.1h0l-2.4,5.1c-0.2,0.4-0.2,0.5-0.3,0.5
			c-0.1,0-0.1-0.1-0.3-0.5c-0.3-0.5-1.1-2.2-1.1-2.3c-0.1-0.2-1.2-2.5-1.3-2.8h0l-0.4,4.6c0,0.2,0,0.3,0,0.5c0,0.1,0.1,0.3,0.3,0.3
			c0.2,0,0.3,0,0.4,0c0,0,0.1,0,0.1,0c0,0.1-0.1,0.1-0.2,0.1c-0.4,0-0.8,0-0.9,0c-0.1,0-0.6,0-0.8,0c-0.1,0-0.2,0-0.2-0.1
			c0,0,0,0,0.1,0c0.1,0,0.1,0,0.3,0c0.3-0.1,0.4-0.4,0.4-0.8l0.7-6.4c0-0.1,0-0.2,0.1-0.2c0.1,0,0.1,0,0.1,0.1l3,6.2l2.9-6.2
			c0-0.1,0.1-0.2,0.1-0.2s0.1,0.1,0.1,0.3L313.5,32.3z"/>
		<path class="st1" d="M319.7,29c0-1.5,0-1.8,0-2.1c0-0.3-0.1-0.5-0.4-0.6c-0.1,0-0.2,0-0.3,0c0,0-0.1,0-0.1-0.1
			c0-0.1,0-0.1,0.2-0.1c0.4,0,1.1,0,1.1,0c0.1,0,0.9,0,1.2,0c0.6,0,1.3,0.1,1.8,0.4c0.2,0.2,0.7,0.7,0.7,1.3c0,0.7-0.3,1.5-1.2,2.3
			c0.8,1,1.5,1.9,2,2.5c0.5,0.6,1,0.7,1.2,0.7c0.2,0,0.3,0,0.4,0c0,0,0.1,0,0.1,0.1c0,0.1-0.1,0.1-0.2,0.1h-0.7c-0.5,0-0.8,0-1-0.2
			c-0.4-0.2-0.8-0.7-1.3-1.4c-0.4-0.5-0.9-1.2-1.1-1.5c0,0-0.1-0.1-0.1-0.1l-1.2,0c0,0-0.1,0-0.1,0.1v0.2c0,0.9,0,1.7,0,2.1
			c0,0.3,0.1,0.5,0.4,0.5c0.1,0,0.4,0,0.4,0c0.1,0,0.1,0,0.1,0.1c0,0,0,0.1-0.2,0.1c-0.5,0-1.2,0-1.2,0c0,0-0.6,0-0.9,0
			c-0.1,0-0.2,0-0.2-0.1c0,0,0-0.1,0.1-0.1c0.1,0,0.2,0,0.3,0c0.2,0,0.2-0.3,0.3-0.5c0-0.4,0-1.2,0-2.1V29z M320.5,29.9
			c0,0,0,0.1,0.1,0.1c0.1,0.1,0.6,0.2,1,0.2c0.2,0,0.5,0,0.7-0.2c0.3-0.2,0.6-0.8,0.6-1.5c0-1.2-0.6-2-1.7-2c-0.3,0-0.6,0-0.7,0.1
			c0,0-0.1,0.1-0.1,0.1V29.9z"/>
		<path class="st1" d="M328.5,26.4c0.1-0.3,0.2-0.4,0.2-0.4c0.1,0,0.1,0,0.2,0.4c0.1,0.4,1.7,4.4,2.3,5.9c0.4,0.9,0.6,1,0.8,1.1
			c0.1,0,0.3,0.1,0.4,0.1c0.1,0,0.1,0,0.1,0.1c0,0.1-0.1,0.1-0.2,0.1c-0.1,0-0.9,0-1.5,0c-0.2,0-0.3,0-0.3-0.1c0,0,0-0.1,0.1-0.1
			c0.1,0,0.1-0.1,0.1-0.3l-0.9-2.4c0,0,0-0.1-0.1-0.1h-2.1c0,0-0.1,0-0.1,0.1l-0.6,1.7c-0.1,0.2-0.1,0.5-0.1,0.7
			c0,0.2,0.2,0.3,0.4,0.3h0.1c0.1,0,0.1,0,0.1,0.1c0,0.1-0.1,0.1-0.1,0.1c-0.2,0-0.7,0-0.8,0c-0.1,0-0.6,0-1.1,0
			c-0.1,0-0.2,0-0.2-0.1c0,0,0-0.1,0.1-0.1c0.1,0,0.2,0,0.3,0c0.5-0.1,0.6-0.4,0.8-0.9L328.5,26.4z M329.6,30.3
			C329.6,30.3,329.6,30.3,329.6,30.3l-0.9-2.7c0-0.1-0.1-0.1-0.1,0l-0.9,2.6c0,0,0,0.1,0,0.1H329.6z"/>
		<path class="st1" d="M334,29c0-1.5,0-1.8,0-2.1c0-0.3-0.1-0.5-0.4-0.6c-0.1,0-0.2,0-0.3,0c0,0-0.1,0-0.1-0.1c0-0.1,0-0.1,0.2-0.1
			c0.4,0,1.1,0,1.1,0c0.1,0,0.7,0,1.3,0c1,0,2.8-0.1,3.9,1.1c0.5,0.5,1,1.3,1,2.5c0,1.2-0.5,2.2-1.1,2.8c-0.4,0.4-1.3,1.1-3,1.1
			c-0.4,0-0.9,0-1.4-0.1c-0.4,0-0.8-0.1-0.8-0.1c0,0-0.2,0-0.4,0c-0.2,0-0.4,0-0.6,0c-0.1,0-0.2,0-0.2-0.1c0,0,0-0.1,0.1-0.1
			c0.1,0,0.2,0,0.3,0c0.2,0,0.2-0.3,0.3-0.5c0-0.4,0-1.2,0-2.1V29z M334.8,30.1c0,1,0,1.9,0,2.1c0,0.2,0,0.6,0.1,0.7
			c0.1,0.2,0.5,0.4,1.7,0.4c0.9,0,1.8-0.3,2.3-0.9c0.5-0.5,0.8-1.4,0.8-2.3c0-1.2-0.5-2-0.9-2.5c-0.9-1-2-1.1-3.2-1.1
			c-0.2,0-0.6,0-0.6,0.1c-0.1,0-0.1,0.1-0.1,0.2c0,0.3,0,1.3,0,2.1V30.1z"/>
		<path class="st1" d="M342.9,29c0-1.5,0-1.8,0-2.1c0-0.3-0.1-0.5-0.4-0.6c-0.1,0-0.2,0-0.3,0c0,0-0.1,0-0.1-0.1
			c0-0.1,0-0.1,0.2-0.1c0.2,0,0.5,0,0.7,0l0.4,0c0.1,0,2,0,2.2,0c0.2,0,0.3,0,0.4,0c0,0,0.1,0,0.1,0c0,0,0,0,0,0.1
			c0,0.1,0,0.2-0.1,0.5c0,0.1,0,0.5,0,0.6c0,0,0,0.1-0.1,0.1c-0.1,0-0.1,0-0.1-0.1c0-0.1,0-0.2-0.1-0.4c-0.1-0.2-0.2-0.3-0.7-0.3
			c-0.2,0-1.2,0-1.3,0c0,0-0.1,0-0.1,0.1v2.7c0,0.1,0,0.1,0.1,0.1c0.1,0,1.3,0,1.6,0c0.2,0,0.4,0,0.5-0.1c0.1-0.1,0.1-0.1,0.1-0.1
			c0,0,0,0,0,0.1c0,0.1,0,0.2-0.1,0.5c0,0.2,0,0.6,0,0.6c0,0.1,0,0.2-0.1,0.2c0,0-0.1,0-0.1-0.1c0-0.1,0-0.2,0-0.3
			c0-0.1-0.1-0.3-0.5-0.3c-0.3,0-1.2,0-1.4,0c0,0-0.1,0-0.1,0.1v0.9c0,0.3,0,1.5,0,1.7c0,0.7,0.2,0.8,1.1,0.8c0.3,0,0.7,0,0.9-0.1
			c0.3-0.1,0.4-0.3,0.4-0.7c0-0.1,0-0.1,0.1-0.1c0.1,0,0.1,0.1,0.1,0.1c0,0.1-0.1,0.7-0.1,1c-0.1,0.3-0.1,0.3-0.5,0.3
			c-0.7,0-1.3,0-1.7,0c-0.4,0-0.6,0-0.8,0c0,0-0.2,0-0.4,0c-0.2,0-0.4,0-0.6,0c-0.1,0-0.2,0-0.2-0.1c0,0,0-0.1,0.1-0.1
			c0.1,0,0.2,0,0.3,0c0.2,0,0.2-0.3,0.3-0.5c0-0.4,0-1.2,0-2.1V29z"/>
		<path class="st1" d="M349.1,32.2c0,0.8,0.1,1.1,0.4,1.1c0.2,0,0.4,0.1,0.5,0.1c0,0,0.1,0,0.1,0.1c0,0.1-0.1,0.1-0.2,0.1
			c-0.6,0-1,0-1,0c-0.1,0-0.5,0-0.9,0c-0.1,0-0.2,0-0.2-0.1c0,0,0-0.1,0.1-0.1c0.1,0,0.3,0,0.4-0.1c0.2-0.1,0.3-0.4,0.3-1.2l0-5.6
			c0-0.4,0-0.5,0.1-0.5s0.2,0.2,0.3,0.3c0.1,0.2,1.6,1.7,3.1,3.4c1,1,2,2.2,2.4,2.6l-0.1-5c0-0.6-0.1-0.9-0.4-0.9
			c-0.2,0-0.4,0-0.5,0c-0.1,0-0.1,0-0.1-0.1c0-0.1,0.1-0.1,0.2-0.1c0.4,0,0.9,0,1,0s0.4,0,0.8,0c0.1,0,0.2,0,0.2,0.1
			c0,0,0,0.1-0.1,0.1c0,0-0.1,0-0.2,0c-0.3,0.1-0.4,0.3-0.4,0.9l0,5.7c0,0.6,0,0.7-0.1,0.7c-0.1,0-0.2-0.1-0.7-0.6
			c-0.1-0.1-1.5-1.5-2.6-2.7c-1.1-1.2-2.2-2.5-2.6-2.8L349.1,32.2z"/>
		<path class="st1" d="M361.4,29c0-1.5,0-1.8,0-2.1c0-0.3-0.1-0.5-0.4-0.6c-0.1,0-0.2,0-0.3,0c0,0-0.1,0-0.1-0.1
			c0-0.1,0-0.1,0.2-0.1c0.4,0,1.1,0,1.1,0c0.1,0,0.9,0,1.2,0c0.6,0,1.3,0.1,1.8,0.4c0.2,0.2,0.7,0.7,0.7,1.3c0,0.7-0.3,1.5-1.2,2.3
			c0.8,1,1.5,1.9,2,2.5c0.5,0.6,1,0.7,1.2,0.7c0.2,0,0.3,0,0.4,0c0,0,0.1,0,0.1,0.1c0,0.1-0.1,0.1-0.2,0.1H367c-0.5,0-0.8,0-1-0.2
			c-0.4-0.2-0.8-0.7-1.3-1.4c-0.4-0.5-0.9-1.2-1.1-1.5c0,0-0.1-0.1-0.1-0.1l-1.2,0c0,0-0.1,0-0.1,0.1v0.2c0,0.9,0,1.7,0,2.1
			c0,0.3,0.1,0.5,0.4,0.5c0.1,0,0.4,0,0.4,0c0.1,0,0.1,0,0.1,0.1c0,0,0,0.1-0.2,0.1c-0.5,0-1.2,0-1.2,0c0,0-0.6,0-0.9,0
			c-0.1,0-0.2,0-0.2-0.1c0,0,0-0.1,0.1-0.1c0.1,0,0.2,0,0.3,0c0.2,0,0.2-0.3,0.3-0.5c0-0.4,0-1.2,0-2.1V29z M362.1,29.9
			c0,0,0,0.1,0.1,0.1c0.1,0.1,0.6,0.2,1,0.2c0.2,0,0.5,0,0.7-0.2c0.3-0.2,0.6-0.8,0.6-1.5c0-1.2-0.6-2-1.7-2c-0.3,0-0.6,0-0.7,0.1
			c0,0-0.1,0.1-0.1,0.1V29.9z"/>
		<path class="st1" d="M370.2,26.4c0.1-0.3,0.2-0.4,0.2-0.4s0.1,0,0.2,0.4c0.1,0.4,1.7,4.4,2.3,5.9c0.4,0.9,0.6,1,0.8,1.1
			c0.1,0,0.3,0.1,0.4,0.1c0.1,0,0.1,0,0.1,0.1c0,0.1-0.1,0.1-0.2,0.1c-0.1,0-0.9,0-1.5,0c-0.2,0-0.3,0-0.3-0.1c0,0,0-0.1,0.1-0.1
			c0.1,0,0.1-0.1,0.1-0.3l-0.9-2.4c0,0,0-0.1-0.1-0.1h-2.1c0,0-0.1,0-0.1,0.1l-0.6,1.7c-0.1,0.2-0.1,0.5-0.1,0.7
			c0,0.2,0.2,0.3,0.4,0.3h0.1c0.1,0,0.1,0,0.1,0.1c0,0.1-0.1,0.1-0.1,0.1c-0.2,0-0.7,0-0.8,0s-0.6,0-1.1,0c-0.1,0-0.2,0-0.2-0.1
			c0,0,0-0.1,0.1-0.1c0.1,0,0.2,0,0.3,0c0.5-0.1,0.6-0.4,0.8-0.9L370.2,26.4z M371.2,30.3C371.3,30.3,371.3,30.3,371.2,30.3
			l-0.9-2.7c0-0.1-0.1-0.1-0.1,0l-0.9,2.6c0,0,0,0.1,0,0.1H371.2z"/>
		<path class="st1" d="M381.6,30.7c0,0.9,0,1.7,0,2.1c0,0.3,0.1,0.5,0.4,0.5c0.1,0,0.4,0,0.4,0c0.1,0,0.1,0,0.1,0.1
			c0,0,0,0.1-0.2,0.1c-0.5,0-1.2,0-1.2,0s-0.7,0-1,0c-0.1,0-0.2,0-0.2-0.1c0,0,0-0.1,0.1-0.1c0.1,0,0.2,0,0.3,0
			c0.2,0,0.2-0.3,0.3-0.5c0-0.4,0-1.2,0-2.1v-1c0,0,0-0.1-0.1-0.1h-4.2c0,0-0.1,0-0.1,0.1v1c0,0.9,0,1.7,0,2.1
			c0,0.3,0.1,0.5,0.4,0.5c0.1,0,0.4,0,0.4,0c0.1,0,0.1,0,0.1,0.1c0,0,0,0.1-0.2,0.1c-0.5,0-1.2,0-1.2,0s-0.7,0-1,0
			c-0.1,0-0.2,0-0.2-0.1c0,0,0-0.1,0.1-0.1c0.1,0,0.2,0,0.3,0c0.2,0,0.2-0.3,0.3-0.5c0-0.4,0-1.2,0-2.1V29c0-1.5,0-1.8,0-2.1
			c0-0.3-0.1-0.5-0.4-0.6c-0.1,0-0.2,0-0.3,0c0,0-0.1,0-0.1-0.1c0-0.1,0-0.1,0.2-0.1c0.4,0,1.1,0,1.1,0s0.7,0,1,0
			c0.1,0,0.2,0,0.2,0.1c0,0,0,0.1-0.1,0.1c-0.1,0-0.1,0-0.2,0c-0.3,0-0.3,0.2-0.4,0.6c0,0.3,0,0.6,0,2.1v0.2c0,0,0,0.1,0.1,0.1h4.2
			c0,0,0.1,0,0.1-0.1V29c0-1.5,0-1.8,0-2.1c0-0.3-0.1-0.5-0.4-0.6c-0.1,0-0.2,0-0.3,0c0,0-0.1,0-0.1-0.1c0-0.1,0-0.1,0.2-0.1
			c0.4,0,1.1,0,1.1,0s0.7,0,1,0c0.1,0,0.2,0,0.2,0.1c0,0,0,0.1-0.1,0.1c-0.1,0-0.1,0-0.2,0c-0.3,0-0.3,0.2-0.4,0.6
			c0,0.3,0,0.6,0,2.1V30.7z"/>
		<path class="st1" d="M392.4,32.3c0,0.4,0.1,0.9,0.5,1c0.3,0.1,0.5,0.1,0.6,0.1c0,0,0.1,0,0.1,0c0,0.1-0.1,0.1-0.2,0.1
			c-0.2,0-1.3,0-1.6-0.1c-0.2,0-0.3,0-0.3-0.1c0,0,0-0.1,0.1-0.1s0.1-0.2,0-0.4l-0.5-5.1h0l-2.4,5.1c-0.2,0.4-0.2,0.5-0.3,0.5
			c-0.1,0-0.1-0.1-0.3-0.5c-0.3-0.5-1.1-2.2-1.1-2.3c-0.1-0.2-1.2-2.5-1.3-2.8h0l-0.4,4.6c0,0.2,0,0.3,0,0.5c0,0.1,0.1,0.3,0.3,0.3
			c0.2,0,0.3,0,0.4,0c0,0,0.1,0,0.1,0c0,0.1-0.1,0.1-0.2,0.1c-0.4,0-0.8,0-0.9,0c-0.1,0-0.6,0-0.8,0c-0.1,0-0.2,0-0.2-0.1
			c0,0,0,0,0.1,0c0.1,0,0.1,0,0.3,0c0.3-0.1,0.4-0.4,0.4-0.8l0.7-6.4c0-0.1,0-0.2,0.1-0.2c0.1,0,0.1,0,0.1,0.1l3,6.2l2.9-6.2
			c0-0.1,0.1-0.2,0.1-0.2s0.1,0.1,0.1,0.3L392.4,32.3z"/>
		<path class="st1" d="M397,26.4c0.1-0.3,0.2-0.4,0.2-0.4s0.1,0,0.2,0.4c0.1,0.4,1.7,4.4,2.3,5.9c0.4,0.9,0.6,1,0.8,1.1
			c0.1,0,0.3,0.1,0.4,0.1c0.1,0,0.1,0,0.1,0.1c0,0.1-0.1,0.1-0.2,0.1c-0.1,0-0.9,0-1.5,0c-0.2,0-0.3,0-0.3-0.1c0,0,0-0.1,0.1-0.1
			c0.1,0,0.1-0.1,0.1-0.3l-0.9-2.4c0,0,0-0.1-0.1-0.1H396c0,0-0.1,0-0.1,0.1l-0.6,1.7c-0.1,0.2-0.1,0.5-0.1,0.7
			c0,0.2,0.2,0.3,0.4,0.3h0.1c0.1,0,0.1,0,0.1,0.1c0,0.1-0.1,0.1-0.1,0.1c-0.2,0-0.7,0-0.8,0s-0.6,0-1.1,0c-0.1,0-0.2,0-0.2-0.1
			c0,0,0-0.1,0.1-0.1c0.1,0,0.2,0,0.3,0c0.5-0.1,0.6-0.4,0.8-0.9L397,26.4z M398,30.3C398.1,30.3,398.1,30.3,398,30.3l-0.9-2.7
			c0-0.1-0.1-0.1-0.1,0l-0.9,2.6c0,0,0,0.1,0,0.1H398z"/>
		<path class="st1" d="M403.8,30.7c0,0.9,0,1.7,0,2.1c0,0.3,0.1,0.5,0.4,0.5c0.1,0,0.4,0,0.4,0c0.1,0,0.1,0,0.1,0.1
			c0,0,0,0.1-0.2,0.1c-0.5,0-1.2,0-1.2,0c0,0-0.7,0-1,0c-0.1,0-0.2,0-0.2-0.1c0,0,0-0.1,0.1-0.1c0.1,0,0.2,0,0.3,0
			c0.2,0,0.2-0.3,0.3-0.5c0-0.4,0-1.2,0-2.1v-4.2l-1.5,0c-0.6,0-0.8,0.1-1,0.3c-0.1,0.2-0.1,0.2-0.2,0.3c0,0.1-0.1,0.1-0.1,0.1
			c0,0,0,0,0-0.1c0-0.1,0.2-0.9,0.2-1c0-0.1,0.1-0.2,0.1-0.2c0.1,0,0.2,0.1,0.4,0.1c0.3,0,0.7,0,0.8,0h3.7c0.3,0,0.5,0,0.7,0
			c0.1,0,0.2,0,0.3,0c0,0,0,0.1,0,0.1c0,0.3,0,1,0,1.1c0,0.1,0,0.1-0.1,0.1c0,0-0.1,0-0.1-0.2l0-0.1c0-0.3-0.3-0.5-1.2-0.5l-1.2,0
			V30.7z"/>
	</g>
	<g class="st0">
		<path class="st1" d="M133,73.5c0,1.6,0,2.2-0.3,2.9c-0.2,0.5-0.6,1-1.4,1.5c-0.1,0.1-0.3,0.2-0.4,0.2c0,0,0,0-0.1,0
			c0,0-0.1,0-0.1-0.1c0-0.1,0-0.1,0.1-0.1c0.1-0.1,0.3-0.2,0.3-0.3c0.6-0.6,0.9-1.2,0.9-3.7v-2.8c0-1.5,0-1.8,0-2.1
			c0-0.3-0.1-0.5-0.4-0.6c-0.1,0-0.2,0-0.3,0c0,0-0.1,0-0.1-0.1c0-0.1,0-0.1,0.2-0.1c0.4,0,1.1,0,1.1,0c0,0,0.7,0,1,0
			c0.1,0,0.2,0,0.2,0.1c0,0,0,0.1-0.1,0.1c-0.1,0-0.1,0-0.2,0c-0.3,0-0.3,0.2-0.4,0.6c0,0.3,0,0.6,0,2.1V73.5z"/>
		<path class="st1" d="M136.8,73.3c0,1.2,0,1.7,0.2,1.9c0.1,0.1,0.5,0.2,1.1,0.2c0.5,0,0.8,0,1-0.3c0.1-0.1,0.2-0.3,0.2-0.5
			c0-0.1,0-0.1,0.1-0.1c0,0,0.1,0,0.1,0.1c0,0.1-0.1,0.6-0.1,0.8c-0.1,0.2-0.1,0.2-0.5,0.2c-0.6,0-1.1,0-1.5,0c-0.4,0-0.7,0-0.9,0
			c0,0-0.2,0-0.4,0c-0.2,0-0.4,0-0.5,0c-0.1,0-0.1,0-0.1-0.1c0,0,0-0.1,0.1-0.1c0.1,0,0.2,0,0.3,0c0.2,0,0.2-0.2,0.2-0.4
			c0-0.3,0-1,0-1.8v-1.5c0-1.3,0-1.5,0-1.8c0-0.3-0.1-0.4-0.4-0.5c-0.1,0-0.2,0-0.3,0c0,0-0.1,0-0.1-0.1c0,0,0-0.1,0.1-0.1
			c0.4,0,0.9,0,1,0c0,0,0.7,0,1,0c0.1,0,0.1,0,0.1,0.1c0,0,0,0.1-0.1,0.1c-0.1,0-0.2,0-0.3,0c-0.3,0-0.3,0.2-0.3,0.5
			c0,0.3,0,0.5,0,1.8V73.3z"/>
		<path class="st1" d="M140.5,75.2c0-0.2,0.2-0.5,0.5-0.5c0.3,0,0.5,0.2,0.5,0.5c0,0.3-0.2,0.6-0.5,0.6
			C140.6,75.7,140.5,75.4,140.5,75.2z"/>
		<path class="st1" d="M147.2,71.2c0-1.5,0-1.8,0-2.1c0-0.3-0.1-0.5-0.4-0.6c-0.1,0-0.2,0-0.3,0c0,0-0.1,0-0.1-0.1
			c0-0.1,0-0.1,0.2-0.1c0.4,0,1.1,0,1.1,0c0.1,0,0.9,0,1.2,0c0.6,0,1.3,0.1,1.8,0.4c0.2,0.2,0.7,0.7,0.7,1.3c0,0.7-0.3,1.5-1.2,2.3
			c0.8,1,1.5,1.9,2,2.5c0.5,0.6,1,0.7,1.2,0.7c0.2,0,0.3,0,0.4,0c0,0,0.1,0,0.1,0.1c0,0.1-0.1,0.1-0.2,0.1h-0.7c-0.5,0-0.8,0-1-0.2
			c-0.4-0.2-0.8-0.7-1.3-1.4c-0.4-0.5-0.9-1.2-1.1-1.5c0,0-0.1-0.1-0.1-0.1l-1.2,0c0,0-0.1,0-0.1,0.1v0.2c0,0.9,0,1.7,0,2.1
			c0,0.3,0.1,0.5,0.4,0.5c0.1,0,0.4,0,0.4,0c0.1,0,0.1,0,0.1,0.1c0,0,0,0.1-0.2,0.1c-0.5,0-1.2,0-1.2,0c0,0-0.6,0-0.9,0
			c-0.1,0-0.2,0-0.2-0.1c0,0,0-0.1,0.1-0.1c0.1,0,0.2,0,0.3,0c0.2,0,0.2-0.3,0.3-0.5c0-0.4,0-1.2,0-2.1V71.2z M147.9,72
			c0,0,0,0.1,0.1,0.1c0.1,0.1,0.6,0.2,1,0.2c0.2,0,0.5,0,0.7-0.2c0.3-0.2,0.6-0.8,0.6-1.5c0-1.2-0.6-2-1.7-2c-0.3,0-0.6,0-0.7,0.1
			c0,0-0.1,0.1-0.1,0.1V72z"/>
		<path class="st1" d="M155.7,69.6c0.1-0.3,0.1-0.3,0.2-0.3c0.1,0,0.1,0.1,0.2,0.3c0.2,0.4,1.5,3.8,2.1,5.1c0.3,0.7,0.5,0.9,0.7,0.9
			c0.1,0,0.3,0,0.3,0c0,0,0.1,0,0.1,0.1s-0.1,0.1-0.2,0.1c-0.1,0-0.8,0-1.4,0c-0.2,0-0.3,0-0.3-0.1c0,0,0,0,0.1-0.1
			c0,0,0.1-0.1,0.1-0.2l-0.8-1.9c0,0,0,0-0.1,0h-2c0,0-0.1,0-0.1,0.1l-0.5,1.3c-0.1,0.2-0.1,0.4-0.1,0.6c0,0.2,0.1,0.2,0.3,0.2h0.1
			c0.1,0,0.1,0,0.1,0.1c0,0,0,0.1-0.1,0.1c-0.2,0-0.7,0-0.8,0c-0.1,0-0.5,0-0.9,0c-0.1,0-0.2,0-0.2-0.1c0,0,0-0.1,0.1-0.1
			c0.1,0,0.2,0,0.3,0c0.4,0,0.6-0.3,0.7-0.8L155.7,69.6z M156.7,73.1C156.7,73.1,156.7,73,156.7,73.1l-0.8-2.3c0-0.1-0.1-0.1-0.1,0
			l-0.8,2.3c0,0,0,0.1,0,0.1H156.7z"/>
		<path class="st1" d="M161,73.6c0-0.5-0.1-0.6-0.2-0.9c-0.1-0.1-1.2-2-1.5-2.4c-0.2-0.3-0.4-0.5-0.6-0.6c-0.1-0.1-0.3-0.1-0.4-0.1
			c0,0-0.1,0-0.1-0.1s0-0.1,0.1-0.1c0.2,0,0.8,0,0.9,0c0.1,0,0.4,0,0.7,0c0.1,0,0.1,0,0.1,0.1c0,0-0.1,0.1-0.1,0.1
			c-0.1,0-0.1,0.1-0.1,0.1c0,0.1,0.1,0.2,0.1,0.3l1.6,2.6c0.2-0.4,1.3-2.1,1.4-2.4c0.1-0.2,0.1-0.3,0.1-0.4c0-0.1,0-0.2-0.1-0.2
			c-0.1,0-0.1-0.1-0.1-0.1c0,0,0,0,0.1,0c0.2,0,0.5,0,0.6,0c0.1,0,0.7,0,0.8,0c0.1,0,0.1,0,0.1,0c0,0,0,0.1-0.1,0.1
			c-0.1,0-0.3,0-0.4,0.1c-0.2,0.1-0.2,0.2-0.4,0.4c-0.3,0.3-1.5,2.3-1.7,2.6c-0.1,0.3-0.1,0.6-0.1,0.8v0.7c0,0.1,0,0.5,0,0.8
			c0,0.2,0.1,0.4,0.3,0.4c0.1,0,0.3,0,0.4,0c0,0,0.1,0,0.1,0.1c0,0,0,0.1-0.1,0.1c-0.5,0-1,0-1.1,0c0,0-0.6,0-0.8,0
			c-0.1,0-0.1,0-0.1-0.1c0,0,0-0.1,0.1-0.1c0.1,0,0.2,0,0.3,0c0.2,0,0.2-0.2,0.3-0.4c0-0.3,0-0.7,0-0.8V73.6z"/>
		<path class="st1" d="M166.6,69.6c0.1-0.3,0.1-0.3,0.2-0.3c0.1,0,0.1,0.1,0.2,0.3c0.2,0.4,1.5,3.8,2.1,5.1c0.3,0.7,0.5,0.9,0.7,0.9
			c0.1,0,0.3,0,0.3,0c0,0,0.1,0,0.1,0.1s-0.1,0.1-0.2,0.1c-0.1,0-0.8,0-1.4,0c-0.2,0-0.3,0-0.3-0.1c0,0,0,0,0.1-0.1
			c0,0,0.1-0.1,0.1-0.2l-0.8-1.9c0,0,0,0-0.1,0h-2c0,0-0.1,0-0.1,0.1l-0.5,1.3c-0.1,0.2-0.1,0.4-0.1,0.6c0,0.2,0.1,0.2,0.3,0.2h0.1
			c0.1,0,0.1,0,0.1,0.1c0,0,0,0.1-0.1,0.1c-0.2,0-0.7,0-0.8,0c-0.1,0-0.5,0-0.9,0c-0.1,0-0.2,0-0.2-0.1c0,0,0-0.1,0.1-0.1
			c0.1,0,0.2,0,0.3,0c0.4,0,0.6-0.3,0.7-0.8L166.6,69.6z M167.6,73.1C167.6,73.1,167.6,73,167.6,73.1l-0.8-2.3c0-0.1-0.1-0.1-0.1,0
			l-0.8,2.3c0,0,0,0.1,0,0.1H167.6z"/>
		<path class="st1" d="M182.1,74.5c0,0.4,0.1,0.9,0.5,1c0.3,0.1,0.5,0.1,0.6,0.1c0,0,0.1,0,0.1,0c0,0.1-0.1,0.1-0.2,0.1
			c-0.2,0-1.3,0-1.6-0.1c-0.2,0-0.3,0-0.3-0.1c0,0,0-0.1,0.1-0.1c0,0,0.1-0.2,0-0.4l-0.5-5.1h0l-2.4,5.1c-0.2,0.4-0.2,0.5-0.3,0.5
			c-0.1,0-0.1-0.1-0.3-0.5c-0.3-0.5-1.1-2.2-1.1-2.3c-0.1-0.2-1.2-2.5-1.3-2.8h0l-0.4,4.6c0,0.2,0,0.3,0,0.5c0,0.1,0.1,0.3,0.3,0.3
			c0.2,0,0.3,0,0.4,0c0,0,0.1,0,0.1,0c0,0.1-0.1,0.1-0.2,0.1c-0.4,0-0.8,0-0.9,0c-0.1,0-0.6,0-0.8,0c-0.1,0-0.2,0-0.2-0.1
			c0,0,0,0,0.1,0c0.1,0,0.1,0,0.3,0c0.3-0.1,0.4-0.4,0.4-0.8l0.7-6.4c0-0.1,0-0.2,0.1-0.2s0.1,0,0.1,0.1l3,6.2l2.9-6.2
			c0-0.1,0.1-0.2,0.1-0.2s0.1,0.1,0.1,0.3L182.1,74.5z"/>
		<path class="st1" d="M187.4,69.3c1.9,0,3.4,1.2,3.4,3.1c0,1.9-1.4,3.4-3.5,3.4c-2.4,0-3.4-1.8-3.4-3.3
			C183.9,71.2,185,69.3,187.4,69.3z M187.5,75.5c0.8,0,2.3-0.4,2.3-2.8c0-2-1.2-3.1-2.6-3.1c-1.4,0-2.5,0.9-2.5,2.7
			C184.8,74.3,186,75.5,187.5,75.5z"/>
		<path class="st1" d="M193.4,73.8c0,1.4,0,1.9-0.3,2.5c-0.2,0.4-0.6,0.8-1.3,1.3c-0.1,0.1-0.3,0.2-0.4,0.2c0,0,0,0-0.1,0
			c0,0-0.1,0-0.1,0c0,0,0-0.1,0.1-0.1c0.1-0.1,0.2-0.2,0.3-0.2c0.6-0.6,0.8-1,0.8-3.1v-2.4c0-1.3,0-1.5,0-1.8c0-0.3-0.1-0.4-0.4-0.5
			c-0.1,0-0.2,0-0.3,0c0,0-0.1,0-0.1-0.1c0,0,0-0.1,0.1-0.1c0.4,0,1,0,1,0c0,0,0.6,0,0.8,0c0.1,0,0.1,0,0.1,0.1c0,0,0,0.1-0.1,0.1
			c-0.1,0-0.1,0-0.2,0c-0.2,0-0.3,0.2-0.3,0.5c0,0.3,0,0.5,0,1.8V73.8z"/>
		<path class="st1" d="M198.6,69.3c1.9,0,3.4,1.2,3.4,3.1c0,1.9-1.4,3.4-3.5,3.4c-2.4,0-3.4-1.8-3.4-3.3
			C195.2,71.2,196.2,69.3,198.6,69.3z M198.8,75.5c0.8,0,2.3-0.4,2.3-2.8c0-2-1.2-3.1-2.6-3.1c-1.4,0-2.5,0.9-2.5,2.7
			C196.1,74.3,197.3,75.5,198.8,75.5z"/>
		<path class="st1" d="M203.4,75.6c-0.1-0.1-0.1-0.1-0.1-0.3c0-0.4,0-0.7,0-0.9c0-0.1,0-0.1,0.1-0.1c0,0,0.1,0,0.1,0.1
			c0,0.1,0,0.2,0,0.3c0.1,0.6,0.8,0.8,1.4,0.8c0.9,0,1.3-0.5,1.3-1.1c0-0.6-0.3-0.9-1.1-1.5l-0.4-0.3c-0.9-0.7-1.2-1.2-1.2-1.8
			c0-1,0.8-1.6,1.9-1.6c0.3,0,0.7,0,0.9,0.1c0.2,0,0.2,0,0.3,0c0.1,0,0.1,0,0.1,0.1c0,0,0,0.3,0,0.9c0,0.1,0,0.2-0.1,0.2
			c-0.1,0-0.1,0-0.1-0.1c0-0.1-0.1-0.3-0.1-0.4c-0.1-0.1-0.3-0.4-1.1-0.4c-0.6,0-1.1,0.3-1.1,0.9c0,0.5,0.3,0.8,1.1,1.4l0.2,0.2
			c1,0.7,1.4,1.3,1.4,2c0,0.5-0.2,1-0.8,1.4c-0.4,0.2-0.9,0.3-1.4,0.3C204.2,75.8,203.7,75.8,203.4,75.6z"/>
		<path class="st1" d="M210.6,69.6c0.1-0.3,0.1-0.3,0.2-0.3c0.1,0,0.1,0.1,0.2,0.3c0.2,0.4,1.5,3.8,2.1,5.1c0.3,0.7,0.5,0.9,0.7,0.9
			c0.1,0,0.3,0,0.3,0c0,0,0.1,0,0.1,0.1s-0.1,0.1-0.2,0.1c-0.1,0-0.8,0-1.4,0c-0.2,0-0.3,0-0.3-0.1c0,0,0,0,0.1-0.1
			c0,0,0.1-0.1,0.1-0.2l-0.8-1.9c0,0,0,0-0.1,0h-2c0,0-0.1,0-0.1,0.1l-0.5,1.3c-0.1,0.2-0.1,0.4-0.1,0.6c0,0.2,0.1,0.2,0.3,0.2h0.1
			c0.1,0,0.1,0,0.1,0.1c0,0,0,0.1-0.1,0.1c-0.2,0-0.7,0-0.8,0c-0.1,0-0.5,0-0.9,0c-0.1,0-0.2,0-0.2-0.1c0,0,0-0.1,0.1-0.1
			c0.1,0,0.2,0,0.3,0c0.4,0,0.6-0.3,0.7-0.8L210.6,69.6z M211.5,73.1C211.6,73.1,211.6,73,211.5,73.1l-0.8-2.3c0-0.1-0.1-0.1-0.1,0
			l-0.8,2.3c0,0,0,0.1,0,0.1H211.5z"/>
		<path class="st1" d="M215.4,71.8c0-1.3,0-1.5,0-1.8c0-0.3-0.1-0.4-0.4-0.5c-0.1,0-0.2,0-0.3,0c0,0-0.1,0-0.1-0.1
			c0,0,0-0.1,0.1-0.1c0.4,0,1,0,1,0c0.1,0,0.8,0,1.1,0c0.5,0,1.2,0,1.6,0.4c0.2,0.2,0.6,0.6,0.6,1.1c0,0.6-0.3,1.2-1.1,1.9
			c0.7,0.9,1.3,1.6,1.8,2.2c0.5,0.5,0.7,0.5,1,0.6c0.2,0,0.3,0,0.3,0s0.1,0,0.1,0.1c0,0,0,0.1-0.2,0.1h-0.5c-0.5,0-0.7,0-0.9-0.2
			c-0.4-0.2-0.7-0.6-1.2-1.2c-0.4-0.5-0.7-1-0.9-1.2c0,0-0.1,0-0.1,0l-1.1,0c0,0-0.1,0-0.1,0.1v0.2c0,0.8,0,1.5,0,1.8
			c0,0.2,0.1,0.4,0.3,0.4c0.1,0,0.3,0,0.4,0c0.1,0,0.1,0,0.1,0.1c0,0,0,0.1-0.1,0.1c-0.5,0-1,0-1.1,0c0,0-0.6,0-0.9,0
			c-0.1,0-0.1,0-0.1-0.1c0,0,0-0.1,0.1-0.1c0.1,0,0.2,0,0.3,0c0.2,0,0.2-0.2,0.2-0.4c0-0.3,0-1,0-1.8V71.8z M216.1,72.5
			c0,0,0,0.1,0.1,0.1c0.1,0.1,0.6,0.1,1,0.1c0.2,0,0.4,0,0.6-0.1c0.3-0.2,0.5-0.6,0.5-1.3c0-1-0.6-1.6-1.5-1.6c-0.3,0-0.5,0-0.6,0
			c0,0-0.1,0-0.1,0.1V72.5z"/>
		<path class="st1" d="M222.7,73.3c0,0.8,0,1.5,0,1.8c0,0.2,0.1,0.4,0.3,0.4c0.1,0,0.3,0,0.4,0c0,0,0.1,0,0.1,0.1c0,0,0,0.1-0.1,0.1
			c-0.5,0-1,0-1.1,0c0,0-0.6,0-0.9,0c-0.1,0-0.1,0-0.1-0.1c0,0,0-0.1,0.1-0.1c0.1,0,0.2,0,0.3,0c0.2,0,0.2-0.2,0.2-0.4
			c0-0.3,0-1,0-1.8v-1.5c0-1.3,0-1.5,0-1.8c0-0.3-0.1-0.4-0.3-0.5c-0.1,0-0.2,0-0.3,0c0,0-0.1,0-0.1-0.1c0,0,0-0.1,0.1-0.1
			c0.3,0,0.8,0,0.9,0c0,0,0.6,0,0.9,0c0.1,0,0.1,0,0.1,0.1c0,0,0,0.1-0.1,0.1c-0.1,0-0.1,0-0.2,0c-0.2,0-0.3,0.2-0.3,0.5
			c0,0.3,0,0.5,0,1.8V73.3z"/>
		<path class="st1" d="M227.9,75.7c-0.1,0-0.1-0.1-0.1-0.1c0-0.1,0.1-0.2,0.2-0.2c2-1.7,3.4-3.1,3.4-5c0-1.4-0.9-1.8-1.6-1.8
			c-0.5,0-0.8,0.1-1,0.4c-0.2,0.2-0.3,0.6-0.3,1c0,0.1,0,0.1-0.1,0.1c0,0-0.1,0-0.1-0.1c0-0.1-0.1-0.9-0.1-1.2c0-0.1,0-0.1,0.1-0.1
			c0.4-0.2,0.9-0.3,1.7-0.3c1.5,0,2.2,0.9,2.2,2c0,2-2.2,3.8-3.4,4.9c0,0,0,0.1,0,0.1h0.7c0.2,0,1.3,0,1.7,0c0.7-0.1,1-0.4,1.1-0.9
			c0-0.1,0.1-0.1,0.1-0.1c0,0,0.1,0.1,0.1,0.1c0,0.2-0.2,1-0.3,1.3c-0.1,0.3-0.2,0.3-0.6,0.3H227.9z"/>
		<path class="st1" d="M236.2,68.6c0.1-0.3,0.2-0.4,0.2-0.4c0.1,0,0.1,0,0.2,0.4c0.1,0.4,1.7,4.4,2.3,5.9c0.4,0.9,0.6,1,0.8,1.1
			c0.1,0,0.3,0.1,0.4,0.1c0.1,0,0.1,0,0.1,0.1c0,0.1-0.1,0.1-0.2,0.1c-0.1,0-0.9,0-1.5,0c-0.2,0-0.3,0-0.3-0.1c0,0,0-0.1,0.1-0.1
			c0.1,0,0.1-0.1,0.1-0.3l-0.9-2.4c0,0,0-0.1-0.1-0.1h-2.1c0,0-0.1,0-0.1,0.1l-0.6,1.7c-0.1,0.2-0.1,0.5-0.1,0.7
			c0,0.2,0.2,0.3,0.4,0.3h0.1c0.1,0,0.1,0,0.1,0.1c0,0.1-0.1,0.1-0.1,0.1c-0.2,0-0.7,0-0.8,0s-0.6,0-1.1,0c-0.1,0-0.2,0-0.2-0.1
			c0,0,0-0.1,0.1-0.1c0.1,0,0.2,0,0.3,0c0.5-0.1,0.6-0.4,0.8-0.9L236.2,68.6z M237.2,72.5C237.3,72.5,237.3,72.5,237.2,72.5
			l-0.9-2.7c0-0.1-0.1-0.1-0.1,0l-0.9,2.6c0,0,0,0.1,0,0.1H237.2z"/>
		<path class="st1" d="M240.7,75c0-0.3,0.4-0.5,0.6-0.5c0,0,0.1,0,0.2,0.2c0.1,0.2,0.2,0.3,0.2,0.4c0,0.1,0,0.3-0.1,0.4
			c-0.1,0.2-0.4,0.7-0.6,1c0,0-0.1,0.1-0.1,0.1c0,0-0.1,0-0.1-0.1s0-0.1,0.1-0.1c0.2-0.3,0.2-0.5,0.2-0.7
			C241,75.3,240.7,75.1,240.7,75z"/>
		<path class="st1" d="M247.3,71.2c0-1.5,0-1.8,0-2.1c0-0.3-0.1-0.5-0.4-0.6c-0.1,0-0.2,0-0.3,0c0,0-0.1,0-0.1-0.1
			c0-0.1,0-0.1,0.2-0.1c0.4,0,1,0,1.1,0c0.1,0,0.7,0,1,0c0.1,0,0.2,0,0.2,0.1c0,0,0,0.1-0.1,0.1c-0.1,0-0.1,0-0.2,0
			c-0.3,0-0.3,0.2-0.4,0.6c0,0.3,0,0.6,0,2.1v0.6h0c0.2-0.2,1.9-2,2.3-2.4c0.3-0.3,0.5-0.5,0.5-0.7c0-0.1,0-0.2-0.1-0.2
			c0,0-0.1,0-0.1-0.1c0,0,0-0.1,0.1-0.1c0.2,0,0.5,0,0.7,0c0,0,0.7,0,0.9,0c0.1,0,0.1,0,0.1,0.1s0,0.1-0.1,0.1c-0.1,0-0.4,0-0.5,0.1
			c-0.4,0.2-0.6,0.4-1.1,0.8c-0.2,0.2-2,1.9-2.2,2.1c0.3,0.3,2.3,2.4,2.7,2.8c0.8,0.8,1,0.9,1.5,1.1c0.3,0.1,0.5,0.1,0.6,0.1
			s0.1,0,0.1,0.1c0,0,0,0.1-0.2,0.1H253c-0.3,0-0.5,0-0.7,0c-0.5,0-0.8-0.3-1.2-0.6c-0.4-0.4-2.5-2.6-3-3.2h0v1c0,0.9,0,1.7,0,2.1
			c0,0.3,0.1,0.5,0.4,0.5c0.1,0,0.3,0,0.4,0c0.1,0,0.1,0,0.1,0.1c0,0,0,0.1-0.2,0.1c-0.5,0-1,0-1.1,0s-0.6,0-0.9,0
			c-0.1,0-0.2,0-0.2-0.1c0,0,0-0.1,0.1-0.1c0.1,0,0.2,0,0.3,0c0.2,0,0.2-0.3,0.3-0.5c0-0.4,0-1.2,0-2.1V71.2z"/>
		<path class="st1" d="M254.4,71.8c0-1.3,0-1.5,0-1.8c0-0.3-0.1-0.4-0.4-0.5c-0.1,0-0.2,0-0.3,0c0,0-0.1,0-0.1-0.1
			c0,0,0-0.1,0.1-0.1c0.4,0,1,0,1,0c0.1,0,1.9,0,2.1,0c0.2,0,0.3,0,0.4,0c0,0,0.1,0,0.1,0c0,0,0,0,0,0.1c0,0.1,0,0.2-0.1,0.4
			c0,0.1,0,0.5,0,0.5c0,0,0,0.1-0.1,0.1c0,0-0.1,0-0.1-0.1c0-0.1,0-0.2,0-0.3c-0.1-0.1-0.1-0.2-0.6-0.3c-0.1,0-1.1,0-1.2,0
			c0,0,0,0,0,0.1v2.3c0,0.1,0,0.1,0,0.1c0.1,0,1.2,0,1.4,0c0.2,0,0.3,0,0.4-0.1c0.1-0.1,0.1-0.1,0.1-0.1c0,0,0,0,0,0.1
			c0,0,0,0.2-0.1,0.5c0,0.2,0,0.5,0,0.5c0,0.1,0,0.2-0.1,0.2c0,0-0.1,0-0.1-0.1c0-0.1,0-0.2,0-0.3c0-0.1-0.1-0.2-0.4-0.3
			c-0.2,0-1.2,0-1.3,0c0,0-0.1,0-0.1,0.1v0.7c0,0.3,0,1.3,0,1.4c0,0.6,0.2,0.7,1,0.7c0.2,0,0.6,0,0.9-0.1c0.2-0.1,0.3-0.2,0.4-0.6
			c0-0.1,0-0.1,0.1-0.1s0.1,0.1,0.1,0.1c0,0.1-0.1,0.6-0.1,0.8c-0.1,0.2-0.1,0.2-0.5,0.2c-0.6,0-1.1,0-1.5,0c-0.4,0-0.6,0-0.7,0
			c0,0-0.2,0-0.4,0c-0.2,0-0.4,0-0.5,0c-0.1,0-0.1,0-0.1-0.1c0,0,0-0.1,0.1-0.1c0.1,0,0.2,0,0.3,0c0.2,0,0.2-0.2,0.2-0.4
			c0-0.3,0-1,0-1.8V71.8z"/>
		<path class="st1" d="M259.8,71.8c0-1.3,0-1.5,0-1.8c0-0.3-0.1-0.4-0.4-0.5c-0.1,0-0.2,0-0.3,0c0,0-0.1,0-0.1-0.1
			c0,0,0-0.1,0.1-0.1c0.4,0,0.9,0,1,0c0.2,0,0.8,0,1.2,0c1.1,0,1.5,0.3,1.6,0.5c0.2,0.2,0.4,0.5,0.4,1c0,1.2-0.9,2-2.2,2
			c0,0-0.2,0-0.2,0c0,0-0.1,0-0.1-0.1c0-0.1,0-0.1,0.2-0.1c0.9,0,1.6-0.6,1.6-1.3c0-0.3,0-0.8-0.5-1.3c-0.5-0.5-1-0.4-1.2-0.4
			c-0.1,0-0.4,0-0.5,0.1c0,0-0.1,0.1-0.1,0.2v3.4c0,0.8,0,1.5,0,1.8c0,0.2,0.1,0.4,0.3,0.4c0.1,0,0.3,0,0.4,0c0,0,0.1,0,0.1,0.1
			c0,0,0,0.1-0.1,0.1c-0.5,0-1,0-1.1,0c0,0-0.6,0-0.9,0c-0.1,0-0.1,0-0.1-0.1c0,0,0-0.1,0.1-0.1c0.1,0,0.2,0,0.3,0
			c0.2,0,0.2-0.2,0.2-0.4c0-0.3,0-1,0-1.8V71.8z"/>
		<path class="st1" d="M266.5,69.6c0.1-0.3,0.1-0.3,0.2-0.3c0.1,0,0.1,0.1,0.2,0.3c0.2,0.4,1.5,3.8,2.1,5.1c0.3,0.7,0.5,0.9,0.7,0.9
			c0.1,0,0.3,0,0.3,0c0,0,0.1,0,0.1,0.1s-0.1,0.1-0.2,0.1c-0.1,0-0.8,0-1.4,0c-0.2,0-0.3,0-0.3-0.1c0,0,0,0,0.1-0.1
			c0,0,0.1-0.1,0.1-0.2l-0.8-1.9c0,0,0,0-0.1,0h-2c0,0-0.1,0-0.1,0.1l-0.5,1.3c-0.1,0.2-0.1,0.4-0.1,0.6c0,0.2,0.1,0.2,0.3,0.2h0.1
			c0.1,0,0.1,0,0.1,0.1c0,0,0,0.1-0.1,0.1c-0.2,0-0.7,0-0.8,0c-0.1,0-0.5,0-0.9,0c-0.1,0-0.2,0-0.2-0.1c0,0,0-0.1,0.1-0.1
			c0.1,0,0.2,0,0.3,0c0.4,0,0.6-0.3,0.7-0.8L266.5,69.6z M267.5,73.1C267.5,73.1,267.5,73,267.5,73.1l-0.8-2.3c0-0.1-0.1-0.1-0.1,0
			l-0.8,2.3c0,0,0,0.1,0,0.1H267.5z"/>
		<path class="st1" d="M271.7,74.6c0,0.7,0.1,0.9,0.3,1c0.2,0,0.4,0,0.4,0c0,0,0.1,0,0.1,0.1c0,0-0.1,0.1-0.2,0.1
			c-0.5,0-0.8,0-0.9,0c-0.1,0-0.4,0-0.8,0c-0.1,0-0.1,0-0.1-0.1c0,0,0-0.1,0.1-0.1c0.1,0,0.2,0,0.4,0c0.2-0.1,0.2-0.3,0.2-1v-4.8
			c0-0.3,0-0.4,0.1-0.4c0.1,0,0.2,0.2,0.3,0.3c0.1,0.1,1.4,1.5,2.7,2.8c0.9,0.9,1.8,1.9,2,2.1l-0.1-4.2c0-0.5-0.1-0.7-0.3-0.8
			c-0.2,0-0.4,0-0.4,0c-0.1,0-0.1,0-0.1-0.1c0,0,0.1-0.1,0.2-0.1c0.4,0,0.8,0,0.9,0c0.1,0,0.4,0,0.7,0c0.1,0,0.2,0,0.2,0.1
			c0,0,0,0.1-0.1,0.1c0,0-0.1,0-0.2,0c-0.3,0.1-0.3,0.2-0.3,0.7l0,4.9c0,0.5,0,0.6-0.1,0.6c-0.1,0-0.2-0.1-0.7-0.5
			c-0.1-0.1-1.3-1.3-2.2-2.3c-1-1-2-2.1-2.2-2.4L271.7,74.6z"/>
		<path class="st1" d="M280.3,73.8c0,1.4,0,1.9-0.3,2.5c-0.2,0.4-0.6,0.8-1.3,1.3c-0.1,0.1-0.3,0.2-0.4,0.2c0,0,0,0-0.1,0
			c0,0-0.1,0-0.1,0c0,0,0-0.1,0.1-0.1c0.1-0.1,0.2-0.2,0.3-0.2c0.6-0.6,0.8-1,0.8-3.1v-2.4c0-1.3,0-1.5,0-1.8c0-0.3-0.1-0.4-0.4-0.5
			c-0.1,0-0.2,0-0.3,0c0,0-0.1,0-0.1-0.1c0,0,0-0.1,0.1-0.1c0.4,0,1,0,1,0c0,0,0.6,0,0.8,0c0.1,0,0.1,0,0.1,0.1c0,0,0,0.1-0.1,0.1
			c-0.1,0-0.1,0-0.2,0c-0.2,0-0.3,0.2-0.3,0.5c0,0.3,0,0.5,0,1.8V73.8z"/>
		<path class="st1" d="M283.1,71.8c0-1.3,0-1.5,0-1.8c0-0.3-0.1-0.4-0.4-0.5c-0.1,0-0.2,0-0.3,0c0,0-0.1,0-0.1-0.1
			c0,0,0-0.1,0.1-0.1c0.4,0,1,0,1,0c0.1,0,1.9,0,2.1,0c0.2,0,0.3,0,0.4,0c0,0,0.1,0,0.1,0c0,0,0,0,0,0.1c0,0.1,0,0.2-0.1,0.4
			c0,0.1,0,0.5,0,0.5c0,0,0,0.1-0.1,0.1c0,0-0.1,0-0.1-0.1c0-0.1,0-0.2,0-0.3c-0.1-0.1-0.1-0.2-0.6-0.3c-0.1,0-1.1,0-1.2,0
			c0,0,0,0,0,0.1v2.3c0,0.1,0,0.1,0,0.1c0.1,0,1.2,0,1.4,0c0.2,0,0.3,0,0.4-0.1c0.1-0.1,0.1-0.1,0.1-0.1c0,0,0,0,0,0.1
			c0,0,0,0.2-0.1,0.5c0,0.2,0,0.5,0,0.5c0,0.1,0,0.2-0.1,0.2c0,0-0.1,0-0.1-0.1c0-0.1,0-0.2,0-0.3c0-0.1-0.1-0.2-0.4-0.3
			c-0.2,0-1.2,0-1.3,0c0,0-0.1,0-0.1,0.1v0.7c0,0.3,0,1.3,0,1.4c0,0.6,0.2,0.7,1,0.7c0.2,0,0.6,0,0.9-0.1c0.2-0.1,0.3-0.2,0.4-0.6
			c0-0.1,0-0.1,0.1-0.1c0,0,0.1,0.1,0.1,0.1c0,0.1-0.1,0.6-0.1,0.8c-0.1,0.2-0.1,0.2-0.5,0.2c-0.6,0-1.1,0-1.5,0c-0.4,0-0.6,0-0.7,0
			c0,0-0.2,0-0.4,0c-0.2,0-0.4,0-0.5,0c-0.1,0-0.1,0-0.1-0.1c0,0,0-0.1,0.1-0.1c0.1,0,0.2,0,0.3,0c0.2,0,0.2-0.2,0.2-0.4
			c0-0.3,0-1,0-1.8V71.8z"/>
		<path class="st1" d="M288.9,74.6c0,0.7,0.1,0.9,0.3,1c0.2,0,0.4,0,0.4,0c0,0,0.1,0,0.1,0.1c0,0-0.1,0.1-0.2,0.1
			c-0.5,0-0.8,0-0.9,0s-0.4,0-0.8,0c-0.1,0-0.1,0-0.1-0.1c0,0,0-0.1,0.1-0.1c0.1,0,0.2,0,0.4,0c0.2-0.1,0.2-0.3,0.2-1v-4.8
			c0-0.3,0-0.4,0.1-0.4c0.1,0,0.2,0.2,0.3,0.3c0.1,0.1,1.4,1.5,2.7,2.8c0.9,0.9,1.8,1.9,2,2.1l-0.1-4.2c0-0.5-0.1-0.7-0.3-0.8
			c-0.2,0-0.4,0-0.4,0c-0.1,0-0.1,0-0.1-0.1c0,0,0.1-0.1,0.2-0.1c0.4,0,0.8,0,0.9,0s0.4,0,0.7,0c0.1,0,0.2,0,0.2,0.1
			c0,0,0,0.1-0.1,0.1c0,0-0.1,0-0.2,0c-0.3,0.1-0.3,0.2-0.3,0.7l0,4.9c0,0.5,0,0.6-0.1,0.6c-0.1,0-0.2-0.1-0.7-0.5
			c-0.1-0.1-1.3-1.3-2.2-2.3c-1-1-2-2.1-2.2-2.4L288.9,74.6z"/>
		<path class="st1" d="M300.1,71.2c0-1.5,0-1.8,0-2.1c0-0.3-0.1-0.5-0.4-0.6c-0.1,0-0.2,0-0.3,0c0,0-0.1,0-0.1-0.1
			c0-0.1,0-0.1,0.2-0.1c0.4,0,1,0,1.1,0c0.1,0,0.7,0,1,0c0.1,0,0.2,0,0.2,0.1c0,0,0,0.1-0.1,0.1c-0.1,0-0.1,0-0.2,0
			c-0.3,0-0.3,0.2-0.4,0.6c0,0.3,0,0.6,0,2.1v0.6h0c0.2-0.2,1.9-2,2.3-2.4c0.3-0.3,0.5-0.5,0.5-0.7c0-0.1,0-0.2-0.1-0.2
			c0,0-0.1,0-0.1-0.1c0,0,0-0.1,0.1-0.1c0.2,0,0.5,0,0.7,0c0,0,0.7,0,0.9,0c0.1,0,0.1,0,0.1,0.1s0,0.1-0.1,0.1c-0.1,0-0.4,0-0.5,0.1
			c-0.4,0.2-0.6,0.4-1.1,0.8c-0.2,0.2-2,1.9-2.2,2.1c0.3,0.3,2.3,2.4,2.7,2.8c0.8,0.8,1,0.9,1.5,1.1c0.3,0.1,0.5,0.1,0.6,0.1
			s0.1,0,0.1,0.1c0,0,0,0.1-0.2,0.1h-0.5c-0.3,0-0.5,0-0.7,0c-0.5,0-0.8-0.3-1.2-0.6c-0.4-0.4-2.5-2.6-3-3.2h0v1c0,0.9,0,1.7,0,2.1
			c0,0.3,0.1,0.5,0.4,0.5c0.1,0,0.3,0,0.4,0c0.1,0,0.1,0,0.1,0.1c0,0,0,0.1-0.2,0.1c-0.5,0-1,0-1.1,0s-0.6,0-0.9,0
			c-0.1,0-0.2,0-0.2-0.1c0,0,0-0.1,0.1-0.1c0.1,0,0.2,0,0.3,0c0.2,0,0.2-0.3,0.3-0.5c0-0.4,0-1.2,0-2.1V71.2z"/>
		<path class="st1" d="M308.5,69.6c0.1-0.3,0.1-0.3,0.2-0.3c0.1,0,0.1,0.1,0.2,0.3c0.2,0.4,1.5,3.8,2.1,5.1c0.3,0.7,0.5,0.9,0.7,0.9
			c0.1,0,0.3,0,0.3,0c0,0,0.1,0,0.1,0.1s-0.1,0.1-0.2,0.1c-0.1,0-0.8,0-1.4,0c-0.2,0-0.3,0-0.3-0.1c0,0,0,0,0.1-0.1
			c0,0,0.1-0.1,0.1-0.2l-0.8-1.9c0,0,0,0-0.1,0h-2c0,0-0.1,0-0.1,0.1l-0.5,1.3c-0.1,0.2-0.1,0.4-0.1,0.6c0,0.2,0.1,0.2,0.3,0.2h0.1
			c0.1,0,0.1,0,0.1,0.1c0,0,0,0.1-0.1,0.1c-0.2,0-0.7,0-0.8,0c-0.1,0-0.5,0-0.9,0c-0.1,0-0.2,0-0.2-0.1c0,0,0-0.1,0.1-0.1
			c0.1,0,0.2,0,0.3,0c0.4,0,0.6-0.3,0.7-0.8L308.5,69.6z M309.5,73.1C309.5,73.1,309.5,73,309.5,73.1l-0.8-2.3c0-0.1-0.1-0.1-0.1,0
			l-0.8,2.3c0,0,0,0.1,0,0.1H309.5z"/>
		<path class="st1" d="M313.3,71.8c0-1.3,0-1.5,0-1.8c0-0.3-0.1-0.4-0.4-0.5c-0.1,0-0.2,0-0.3,0c0,0-0.1,0-0.1,0c0,0,0-0.1,0.1-0.1
			c0.4,0,1,0,1,0c0.2,0,0.6,0,1,0c1.4,0,1.8,0.8,1.8,1.3c0,0.7-0.4,1.1-0.9,1.5c0.7,0.2,1.5,0.8,1.5,1.7c0,0.9-0.7,1.9-2.2,1.9
			c-0.2,0-0.5,0-0.7,0c-0.3,0-0.5,0-0.6,0c0,0-0.2,0-0.4,0c-0.2,0-0.4,0-0.5,0c-0.1,0-0.1,0-0.1-0.1c0,0,0,0,0.1,0
			c0.1,0,0.2,0,0.3,0c0.2,0,0.2-0.2,0.2-0.5c0-0.3,0-1,0-1.8V71.8z M314,72C314,72.1,314.1,72.1,314,72c0.1,0.1,0.3,0.1,0.6,0.1
			c0.5,0,0.7,0,0.8-0.2c0.2-0.2,0.3-0.5,0.3-0.9c0-0.6-0.4-1.3-1.2-1.3c-0.1,0-0.3,0-0.4,0c-0.1,0-0.1,0-0.1,0.1V72z M314,72.9
			c0,0.6,0,1.6,0,1.8c0,0.4,0,0.5,0.3,0.6c0.2,0.1,0.6,0.1,0.8,0.1c0.6,0,1.3-0.2,1.3-1.3c0-0.4-0.1-1.1-0.8-1.5
			c-0.3-0.2-0.6-0.2-0.8-0.2c-0.1,0-0.5,0-0.7,0c0,0,0,0,0,0.1V72.9z"/>
		<path class="st1" d="M318.5,75.2c0-0.2,0.2-0.5,0.5-0.5c0.3,0,0.5,0.2,0.5,0.5c0,0.3-0.2,0.6-0.5,0.6
			C318.6,75.7,318.5,75.4,318.5,75.2z"/>
		<path class="st1" d="M332.5,74.5c0,0.4,0.1,0.9,0.5,1c0.3,0.1,0.5,0.1,0.6,0.1c0,0,0.1,0,0.1,0c0,0.1-0.1,0.1-0.2,0.1
			c-0.2,0-1.3,0-1.6-0.1c-0.2,0-0.3,0-0.3-0.1c0,0,0-0.1,0.1-0.1s0.1-0.2,0-0.4l-0.5-5.1h0l-2.4,5.1c-0.2,0.4-0.2,0.5-0.3,0.5
			c-0.1,0-0.1-0.1-0.3-0.5c-0.3-0.5-1.1-2.2-1.1-2.3c-0.1-0.2-1.2-2.5-1.3-2.8h0l-0.4,4.6c0,0.2,0,0.3,0,0.5c0,0.1,0.1,0.3,0.3,0.3
			c0.2,0,0.3,0,0.4,0c0,0,0.1,0,0.1,0c0,0.1-0.1,0.1-0.2,0.1c-0.4,0-0.8,0-0.9,0c-0.1,0-0.6,0-0.8,0c-0.1,0-0.2,0-0.2-0.1
			c0,0,0,0,0.1,0c0.1,0,0.1,0,0.3,0c0.3-0.1,0.4-0.4,0.4-0.8l0.7-6.4c0-0.1,0-0.2,0.1-0.2s0.1,0,0.1,0.1l3,6.2l2.9-6.2
			c0-0.1,0.1-0.2,0.1-0.2c0.1,0,0.1,0.1,0.1,0.3L332.5,74.5z"/>
		<path class="st1" d="M336.8,69.6c0.1-0.3,0.1-0.3,0.2-0.3c0.1,0,0.1,0.1,0.2,0.3c0.2,0.4,1.5,3.8,2.1,5.1c0.3,0.7,0.5,0.9,0.7,0.9
			c0.1,0,0.3,0,0.3,0c0,0,0.1,0,0.1,0.1s-0.1,0.1-0.2,0.1c-0.1,0-0.8,0-1.4,0c-0.2,0-0.3,0-0.3-0.1c0,0,0,0,0.1-0.1
			c0,0,0.1-0.1,0.1-0.2l-0.8-1.9c0,0,0,0-0.1,0h-2c0,0-0.1,0-0.1,0.1l-0.5,1.3c-0.1,0.2-0.1,0.4-0.1,0.6c0,0.2,0.1,0.2,0.3,0.2h0.1
			c0.1,0,0.1,0,0.1,0.1c0,0,0,0.1-0.1,0.1c-0.2,0-0.7,0-0.8,0c-0.1,0-0.5,0-0.9,0c-0.1,0-0.2,0-0.2-0.1c0,0,0-0.1,0.1-0.1
			c0.1,0,0.2,0,0.3,0c0.4,0,0.6-0.3,0.7-0.8L336.8,69.6z M337.7,73.1C337.8,73.1,337.8,73,337.7,73.1l-0.8-2.3c0-0.1-0.1-0.1-0.1,0
			L336,73c0,0,0,0.1,0,0.1H337.7z"/>
		<path class="st1" d="M342.4,73.3c0,1.2,0,1.7,0.2,1.9c0.1,0.1,0.5,0.2,1.1,0.2c0.5,0,0.8,0,1-0.3c0.1-0.1,0.2-0.3,0.2-0.5
			c0-0.1,0-0.1,0.1-0.1c0,0,0.1,0,0.1,0.1c0,0.1-0.1,0.6-0.1,0.8c-0.1,0.2-0.1,0.2-0.5,0.2c-0.6,0-1.1,0-1.5,0c-0.4,0-0.7,0-0.9,0
			c0,0-0.2,0-0.4,0c-0.2,0-0.4,0-0.5,0c-0.1,0-0.1,0-0.1-0.1c0,0,0-0.1,0.1-0.1c0.1,0,0.2,0,0.3,0c0.2,0,0.2-0.2,0.2-0.4
			c0-0.3,0-1,0-1.8v-1.5c0-1.3,0-1.5,0-1.8c0-0.3-0.1-0.4-0.4-0.5c-0.1,0-0.2,0-0.3,0c0,0-0.1,0-0.1-0.1c0,0,0-0.1,0.1-0.1
			c0.4,0,0.9,0,1,0c0,0,0.7,0,1,0c0.1,0,0.1,0,0.1,0.1c0,0,0,0.1-0.1,0.1c-0.1,0-0.2,0-0.3,0c-0.3,0-0.3,0.2-0.3,0.5
			c0,0.3,0,0.5,0,1.8V73.3z"/>
		<path class="st1" d="M348.2,69.6c0.1-0.3,0.1-0.3,0.2-0.3c0.1,0,0.1,0.1,0.2,0.3c0.2,0.4,1.5,3.8,2.1,5.1c0.3,0.7,0.5,0.9,0.7,0.9
			c0.1,0,0.3,0,0.3,0c0,0,0.1,0,0.1,0.1s-0.1,0.1-0.2,0.1c-0.1,0-0.8,0-1.4,0c-0.2,0-0.3,0-0.3-0.1c0,0,0,0,0.1-0.1
			c0,0,0.1-0.1,0.1-0.2l-0.8-1.9c0,0,0,0-0.1,0h-2c0,0-0.1,0-0.1,0.1l-0.5,1.3c-0.1,0.2-0.1,0.4-0.1,0.6c0,0.2,0.1,0.2,0.3,0.2h0.1
			c0.1,0,0.1,0,0.1,0.1c0,0,0,0.1-0.1,0.1c-0.2,0-0.7,0-0.8,0c-0.1,0-0.5,0-0.9,0c-0.1,0-0.2,0-0.2-0.1c0,0,0-0.1,0.1-0.1
			c0.1,0,0.2,0,0.3,0c0.4,0,0.6-0.3,0.7-0.8L348.2,69.6z M349.2,73.1C349.2,73.1,349.2,73,349.2,73.1l-0.8-2.3c0-0.1-0.1-0.1-0.1,0
			l-0.8,2.3c0,0,0,0.1,0,0.1H349.2z"/>
		<path class="st1" d="M353.4,74.6c0,0.7,0.1,0.9,0.3,1c0.2,0,0.4,0,0.4,0c0,0,0.1,0,0.1,0.1c0,0-0.1,0.1-0.2,0.1
			c-0.5,0-0.8,0-0.9,0s-0.4,0-0.8,0c-0.1,0-0.1,0-0.1-0.1c0,0,0-0.1,0.1-0.1c0.1,0,0.2,0,0.4,0c0.2-0.1,0.2-0.3,0.2-1v-4.8
			c0-0.3,0-0.4,0.1-0.4c0.1,0,0.2,0.2,0.3,0.3c0.1,0.1,1.4,1.5,2.7,2.8c0.9,0.9,1.8,1.9,2,2.1l-0.1-4.2c0-0.5-0.1-0.7-0.3-0.8
			c-0.2,0-0.4,0-0.4,0c-0.1,0-0.1,0-0.1-0.1c0,0,0.1-0.1,0.2-0.1c0.4,0,0.8,0,0.9,0s0.4,0,0.7,0c0.1,0,0.2,0,0.2,0.1
			c0,0,0,0.1-0.1,0.1c0,0-0.1,0-0.2,0c-0.3,0.1-0.3,0.2-0.3,0.7l0,4.9c0,0.5,0,0.6-0.1,0.6c-0.1,0-0.2-0.1-0.7-0.5
			c-0.1-0.1-1.3-1.3-2.2-2.3c-1-1-2-2.1-2.2-2.4L353.4,74.6z"/>
		<path class="st1" d="M365.1,73.6c0-0.7,0-0.8-0.4-0.8c-0.1,0-0.2,0-0.3,0c0,0-0.1,0-0.1-0.1c0-0.1,0-0.1,0.1-0.1c0.4,0,1,0,1,0
			c0,0,0.6,0,0.8,0c0.1,0,0.1,0,0.1,0.1c0,0,0,0.1-0.1,0.1c-0.1,0-0.1,0-0.2,0c-0.2,0-0.3,0.2-0.3,0.5c0,0.3,0,0.5,0,0.9V75
			c0,0.4,0,0.4-0.1,0.5c-0.5,0.3-1.3,0.4-1.8,0.4c-0.7,0-1.9-0.1-2.8-0.9c-0.5-0.4-1-1.3-1-2.4c0-1.3,0.7-2.3,1.4-2.7
			c0.8-0.5,1.6-0.5,2.3-0.5c0.5,0,1.2,0.1,1.3,0.1c0.2,0,0.5,0.1,0.7,0.1c0.1,0,0.1,0,0.1,0.1c0,0.1,0,0.3,0,1.2
			c0,0.1,0,0.2-0.1,0.2c0,0-0.1,0-0.1-0.1c0-0.1-0.1-0.4-0.2-0.5c-0.2-0.3-0.9-0.6-2-0.6c-0.5,0-1.1,0-1.8,0.5
			c-0.5,0.4-0.9,1.1-0.9,2.1c0,1.2,0.6,2,0.9,2.3c0.7,0.6,1.4,0.9,2.2,0.9c0.3,0,0.7,0,0.9-0.2c0.1-0.1,0.2-0.1,0.2-0.3V73.6z"/>
	</g>
</g>
<g>
	<path class="st1" d="M30.2,98.2l0.6,0.4c-0.2,0.3-0.5,0.5-0.8,0.7c-0.8,0.2-1.6-0.2-2-0.9c-0.2-0.5-0.2-1,0-1.4
		c0.1-0.5,0.5-0.9,0.9-1.2c0.4-0.2,0.9-0.2,1.3-0.1s0.7,0.4,0.9,0.7c0.1,0.2,0.2,0.5,0.1,0.7L30.5,97c0-0.4-0.2-0.7-0.5-0.8
		c-0.2-0.1-0.5-0.1-0.7,0.1c-0.3,0.2-0.5,0.5-0.5,0.8c-0.1,0.3-0.2,0.7-0.1,1c0.1,0.2,0.3,0.4,0.5,0.5s0.4,0.1,0.5,0
		C29.9,98.6,30.1,98.4,30.2,98.2z"/>
	<path class="st1" d="M31.6,100.1l0.9-3.5l2.6,0.7l-0.2,0.6L33,97.3l-0.2,0.8l1.8,0.5l-0.2,0.6l-1.8-0.5l-0.2,1l2,0.5l-0.2,0.6
		L31.6,100.1z"/>
	<path class="st1" d="M35.4,101l0.6-3.6l0.7,0.1l1,2.6l0.4-2.4l0.7,0.1l-0.6,3.6l-0.7-0.1l-1-2.6l-0.4,2.3H35.4z"/>
	<path class="st1" d="M39.9,98.1l1.3,0.1c0.2,0,0.5,0.1,0.7,0.1c0.2,0.1,0.4,0.2,0.5,0.4c0.1,0.2,0.2,0.4,0.3,0.6c0,0.3,0,0.6,0,0.9
		s-0.1,0.5-0.2,0.8c-0.1,0.2-0.3,0.4-0.5,0.6c-0.2,0.1-0.3,0.2-0.5,0.2s-0.4,0-0.6,0l-1.4-0.1L39.9,98.1z M40.5,98.8l-0.2,2.4
		l0.5,0.1c0.1,0,0.3,0,0.4,0c0.1,0,0.2-0.1,0.3-0.1c0.1-0.1,0.2-0.2,0.2-0.3c0.1-0.2,0.1-0.4,0.1-0.6s0-0.4,0-0.6
		c0-0.1-0.1-0.3-0.2-0.4c-0.1-0.1-0.2-0.2-0.3-0.2C41.1,99,40.9,99,40.7,99L40.5,98.8z"/>
	<path class="st1" d="M43.6,102.1l0.2-3.6h0.7l-0.2,3.6H43.6z"/>
	<path class="st1" d="M45.6,102.2l-0.1-3.6h0.7v1.6l1.4-1.6h1l-1.3,1.4l1.5,2.2h-1l-1-1.7l-0.6,0.6v1.1H45.6z"/>
	<path class="st1" d="M53,101.8l-0.8,0.1l-0.4-0.8l-1.4,0.1l-0.2,0.8l-0.8,0.1l1.1-3.7l0.8-0.1L53,101.8z M51.5,100.5l-0.6-1.3
		l-0.4,1.4L51.5,100.5z"/>
	<path class="st1" d="M54.9,97.9l1.4-0.3c0.2,0,0.4-0.1,0.6-0.1c0.1,0,0.3,0,0.4,0.1c0.1,0.1,0.2,0.1,0.3,0.2s0.2,0.2,0.2,0.4
		c0.1,0.3-0.1,0.7-0.4,0.9c0.2,0,0.4,0.1,0.6,0.2c0.1,0.1,0.2,0.3,0.3,0.5c0,0.2,0,0.3,0,0.5s-0.1,0.3-0.2,0.4
		c-0.1,0.1-0.3,0.2-0.5,0.3c-0.1,0-0.4,0.1-0.9,0.2l-1.2,0.2L54.9,97.9z M55.7,98.4l0.2,0.8l0.5-0.1l0.5-0.1c0.1,0,0.2-0.1,0.3-0.2
		s0.1-0.2,0-0.3c0-0.1-0.1-0.2-0.1-0.2c-0.1-0.1-0.2-0.1-0.3-0.1l-0.6,0.1L55.7,98.4z M56,99.8l0.2,1l0.7-0.1c0.2,0,0.3-0.1,0.5-0.1
		c0.1,0,0.2-0.1,0.2-0.2s0-0.2,0-0.3c0-0.1-0.1-0.2-0.1-0.3c-0.1-0.1-0.2-0.1-0.3-0.1c-0.2,0-0.4,0-0.6,0.1H56z"/>
	<path class="st1" d="M62.8,99.8L62,100l-0.5-0.7l-1.4,0.4l-0.1,0.9l-0.7,0.2l0.4-3.9l0.7-0.2L62.8,99.8z M61.1,98.8l-0.8-1.2
		L60.1,99L61.1,98.8z"/>
	<path class="st1" d="M63.7,99.5l-1.2-3.4l0.7-0.2l2.2,1.8l-0.8-2.3l0.6-0.2l1.2,3.4l-0.7,0.2L63.6,97l0.8,2.2L63.7,99.5z"/>
	<path class="st1" d="M68.7,96.1l-0.3-0.5l1.4-0.6l0.6,1.3c-0.1,0.2-0.3,0.4-0.4,0.6c-0.2,0.2-0.5,0.4-0.7,0.5
		c-0.3,0.1-0.6,0.2-1,0.2c-0.3,0-0.6-0.2-0.9-0.4c-0.3-0.2-0.5-0.5-0.6-0.8s-0.2-0.6-0.2-1c0-0.3,0.1-0.6,0.4-0.9
		c0.2-0.2,0.4-0.4,0.7-0.5c0.3-0.2,0.7-0.2,1.1-0.2c0.3,0.1,0.6,0.3,0.8,0.5L69,94.7c-0.1-0.1-0.3-0.2-0.4-0.3c-0.2,0-0.4,0-0.5,0.1
		c-0.3,0.1-0.5,0.3-0.6,0.6c-0.1,0.3-0.1,0.7,0.1,1c0.1,0.3,0.4,0.6,0.7,0.8c0.3,0.1,0.6,0.1,0.8,0c0.1-0.1,0.3-0.2,0.4-0.3
		c0.1-0.2,0.2-0.3,0.3-0.5l-0.2-0.4L68.7,96.1z"/>
	<path class="st1" d="M71,95.2l0.6-0.4c0.1,0.2,0.3,0.3,0.5,0.3s0.4,0,0.5-0.1c0.2-0.1,0.3-0.2,0.4-0.4c0.1-0.1,0.1-0.3,0-0.4
		c0-0.1-0.1-0.1-0.2-0.2c-0.1,0-0.2,0-0.3,0l-0.6,0.1c-0.3,0.1-0.6,0.1-0.9,0.1c-0.3-0.1-0.5-0.2-0.6-0.5c-0.1-0.2-0.1-0.3-0.1-0.5
		s0.1-0.4,0.2-0.5c0.2-0.2,0.3-0.3,0.6-0.5c0.3-0.2,0.7-0.3,1-0.2c0.3,0.1,0.6,0.3,0.7,0.5l-0.6,0.4c-0.1-0.1-0.2-0.2-0.4-0.3
		c-0.2,0-0.3,0-0.5,0.1s-0.3,0.2-0.4,0.4c0,0.1,0,0.2,0,0.3c0,0.1,0.1,0.1,0.2,0.1c0.2,0,0.5,0,0.7-0.1c0.3-0.1,0.5-0.1,0.8-0.1
		c0.2,0,0.4,0,0.5,0.1c0.3,0.2,0.5,0.6,0.5,1c0,0.2-0.1,0.4-0.2,0.6c-0.2,0.2-0.4,0.4-0.6,0.5c-0.3,0.2-0.7,0.3-1.1,0.2
		C71.5,95.6,71.2,95.4,71,95.2z"/>
	<path class="st1" d="M77.8,92.4l-0.7,0.4l-0.7-0.5l-1.2,0.8l0.2,0.8l-0.6,0.4L74,90.6l0.6-0.4L77.8,92.4z M75.9,91.9L74.8,91
		l0.3,1.4L75.9,91.9z"/>
	<path class="st1" d="M80.7,90.2l-3.3-2l0.6-0.5l2.4,1.5l-1-2.6l0.6-0.5l1.3,3.6L80.7,90.2z"/>
	<path class="st1" d="M81.6,87.1c-0.2-0.2-0.4-0.5-0.5-0.8C81,86.2,81,86,81,85.8s0-0.4,0.1-0.6s0.3-0.5,0.5-0.6
		c0.3-0.3,0.8-0.5,1.3-0.5c1,0.1,1.8,1,1.9,2c0,0.5-0.2,1-0.6,1.3c-0.3,0.3-0.8,0.5-1.3,0.5C82.4,87.8,81.9,87.5,81.6,87.1z
		 M82.1,86.6c0.2,0.3,0.5,0.4,0.8,0.5c0.5,0,1-0.4,1-0.9c0,0,0,0,0-0.1c0-0.3-0.2-0.6-0.4-0.9c-0.2-0.3-0.5-0.4-0.8-0.5
		c-0.5,0-1,0.4-1,0.9c0,0,0,0,0,0.1C81.7,86.1,81.9,86.4,82.1,86.6z"/>
	<path class="st1" d="M86.7,82.6l0.6-0.4c0.2,0.3,0.3,0.6,0.3,1c-0.1,0.8-0.8,1.4-1.6,1.5c-0.5,0-1-0.2-1.3-0.6
		c-0.4-0.3-0.7-0.8-0.7-1.3s0.1-0.9,0.5-1.2c0.2-0.3,0.6-0.5,1-0.5c0.3,0,0.5,0,0.7,0.2l-0.4,0.6c-0.3-0.2-0.7-0.1-1,0.2
		c-0.2,0.2-0.3,0.4-0.2,0.7c0.1,0.3,0.3,0.6,0.5,0.8c0.2,0.3,0.5,0.4,0.9,0.5c0.2,0,0.5-0.1,0.6-0.3c0.1-0.1,0.2-0.3,0.2-0.5
		C86.9,83,86.9,82.8,86.7,82.6z"/>
	<path class="st1" d="M90.9,79.5l-0.5,0.6l-0.8-0.3L88.7,81l0.5,0.7l-0.5,0.6l-2-3.3l0.5-0.6L90.9,79.5z M89,79.6l-1.4-0.4l0.8,1.2
		L89,79.6z"/>
	<path class="st1" d="M91.7,78.4l-2.4-1.7l-0.6,0.9l-0.5-0.3l1.6-2.4l0.5,0.3l-0.6,0.9l2.5,1.7L91.7,78.4z"/>
	<path class="st1" d="M93.2,76l-3.1-1.9l0.4-0.6l3.1,1.9L93.2,76z"/>
	<path class="st1" d="M92.5,73.7c-0.3-0.1-0.5-0.3-0.7-0.6c-0.1-0.2-0.2-0.3-0.3-0.5c-0.1-0.2-0.1-0.4-0.1-0.6
		c0-0.3,0.1-0.5,0.2-0.8c0.2-0.4,0.6-0.8,1-0.9c1-0.2,2,0.3,2.4,1.3c0.2,0.9-0.3,1.9-1.2,2.3C93.5,74,93,73.9,92.5,73.7z M92.9,73
		c0.3,0.2,0.6,0.2,1,0.2c0.5-0.1,0.8-0.7,0.7-1.2c0,0,0,0,0-0.1c-0.1-0.3-0.4-0.6-0.7-0.7c-0.3-0.2-0.6-0.3-1-0.2
		c-0.5,0.2-0.8,0.7-0.7,1.2c0,0,0,0,0,0.1C92.3,72.6,92.6,72.9,92.9,73z"/>
	<path class="st1" d="M96.2,70.4L92.9,69l0.3-0.7l2.8-0.4l-2.2-1l0.3-0.6l3.3,1.4l-0.3,0.7l-2.7,0.4l2.2,0.9L96.2,70.4z"/>
	<path class="st1" d="M98.9,63.4l-0.3,0.8h-0.9l-0.5,1.4l0.7,0.5l-0.2,0.7l-2.9-2.5l0.2-0.7L98.9,63.4z M97.1,64.2h-1.4l1.1,0.9
		L97.1,64.2z"/>
	<path class="st1" d="M99.1,62.5l-3.5-0.9l0.2-0.7l2.9,0.7l0.5-1.8l0.6,0.2L99.1,62.5z"/>
	<path class="st1" d="M100.3,57.3l-3.6-0.5l0.1-0.7l1.4,0.2l0.2-1.4L97,54.7l0.1-0.7l3.6,0.5l-0.1,0.7L99,55l-0.2,1.4l1.6,0.2
		L100.3,57.3z"/>
	<path class="st1" d="M100.9,53.2l-3.6-0.3l0.1-0.7l3.6,0.3L100.9,53.2z"/>
	<path class="st1" d="M99.8,49.5h-0.6l0.1-1.6h1.4c0.2,0.2,0.3,0.4,0.4,0.7s0.1,0.6,0.1,0.9c0,0.3-0.1,0.7-0.3,1
		c-0.2,0.3-0.4,0.5-0.7,0.6c-0.3,0.1-0.6,0.2-1,0.2c-0.3,0-0.7-0.1-1-0.3s-0.5-0.4-0.6-0.7s-0.2-0.6-0.1-0.9c0-0.4,0.1-0.7,0.3-1
		c0.2-0.2,0.5-0.4,0.8-0.5l0.1,0.7c-0.2,0-0.3,0.1-0.4,0.3c-0.1,0.1-0.2,0.3-0.2,0.5c0,0.3,0.1,0.6,0.3,0.8c0.2,0.2,0.6,0.3,0.9,0.3
		s0.7,0,1-0.2c0.2-0.2,0.3-0.5,0.4-0.7c0-0.2,0-0.3-0.1-0.5c0-0.1-0.1-0.3-0.2-0.4h-0.5L99.8,49.5z"/>
	<path class="st1" d="M101.2,46.8l-3.6,0.1v-0.7l1.4-0.1l-0.1-1.4l-1.4,0.1V44l3.6-0.1v0.7l-1.6,0.1l0.1,1.4l1.6-0.1V46.8z"/>
	<path class="st1" d="M99.6,41.1l-0.2-0.7c0.2-0.1,0.4-0.2,0.5-0.3c0.1-0.2,0.1-0.4,0.1-0.5c0-0.2-0.1-0.4-0.2-0.5S99.6,39,99.4,39
		c-0.1,0-0.2,0-0.2,0.1c-0.1,0.1-0.1,0.2-0.1,0.3s0,0.3-0.1,0.6c0,0.3-0.1,0.6-0.2,0.9c-0.3,0.4-0.8,0.6-1.2,0.4
		c-0.2-0.1-0.3-0.2-0.4-0.4S97,40.5,97,40.2c-0.1-0.4,0-0.7,0.2-1s0.4-0.4,0.7-0.5l0.1,0.7c-0.1,0-0.3,0.1-0.4,0.3
		c-0.1,0.1-0.1,0.3,0,0.5c0,0.2,0.1,0.3,0.2,0.5c0.1,0.1,0.1,0.1,0.2,0.1s0.2-0.1,0.2-0.1c0.1-0.2,0.1-0.5,0.1-0.7
		c0-0.3,0.1-0.5,0.1-0.8c0.1-0.2,0.2-0.3,0.3-0.5c0.2-0.1,0.3-0.2,0.5-0.2s0.4,0,0.6,0.1s0.4,0.2,0.5,0.4s0.2,0.5,0.2,0.8
		c0.1,0.4,0,0.8-0.2,1.1C100.3,40.8,100,41,99.6,41.1z"/>
	<path class="st1" d="M98.3,34.9l0.1-0.7c0.4,0,0.7,0.1,1,0.3s0.4,0.5,0.5,0.9s0,0.9-0.2,1.3c-0.3,0.4-0.7,0.7-1.2,0.7
		c-0.5,0.1-1,0.1-1.5-0.1c-0.4-0.2-0.7-0.6-0.8-1.1c-0.1-0.4-0.1-0.8,0.1-1.1c0.1-0.2,0.3-0.4,0.6-0.5l0.3,0.7
		c-0.3,0.1-0.5,0.5-0.4,0.9c0,0.2,0.2,0.5,0.4,0.6c0.3,0.1,0.7,0.1,1,0c0.3,0,0.7-0.2,0.9-0.5c0.1-0.2,0.2-0.4,0.1-0.7
		c0-0.2-0.1-0.3-0.3-0.5C98.8,34.9,98.5,34.9,98.3,34.9z"/>
	<path class="st1" d="M99.1,32.8l-3.4,1.1l-0.2-0.7l1.4-0.4l-0.4-1.4l-1.4,0.4l-0.2-0.7l3.4-1.1l0.2,0.7L97,31.2l0.4,1.4l1.5-0.5
		L99.1,32.8z"/>
	<path class="st1" d="M96.2,29.6c-0.3,0.1-0.6,0.2-0.9,0.2c-0.2,0-0.4-0.1-0.6-0.1c-0.2-0.1-0.3-0.2-0.5-0.3
		c-0.2-0.2-0.3-0.4-0.4-0.7c-0.2-0.4-0.2-0.9,0-1.4c0.5-0.9,1.6-1.3,2.5-1c0.5,0.2,0.8,0.5,1,1c0.2,0.4,0.2,0.9,0,1.4
		C97.1,29.1,96.7,29.4,96.2,29.6z M95.9,28.9c0.3-0.1,0.6-0.3,0.8-0.6c0.1-0.2,0.1-0.5,0-0.8S96.4,27,96.1,27
		c-0.3-0.1-0.7-0.1-1,0.1c-0.3,0.1-0.6,0.3-0.8,0.6c-0.2,0.5,0,1.1,0.5,1.3h0.1C95.3,29.1,95.6,29,95.9,28.9z"/>
	<path class="st1" d="M94.6,25.6c-0.3,0.1-0.6,0.2-0.9,0.3c-0.2,0-0.4,0-0.6-0.1s-0.4-0.1-0.5-0.3c-0.2-0.2-0.4-0.4-0.5-0.6
		c-0.2-0.4-0.3-0.9-0.1-1.4c0.4-0.9,1.4-1.4,2.5-1.2c0.4,0.2,0.8,0.5,1,0.9s0.3,0.9,0.2,1.4C95.4,25,95,25.4,94.6,25.6z M94.2,24.9
		c0.3-0.1,0.6-0.4,0.7-0.7c0.2-0.5-0.1-1.1-0.6-1.3c0,0,0,0-0.1,0c-0.3-0.1-0.7,0-1,0.2c-0.3,0.1-0.6,0.4-0.7,0.7
		c-0.2,0.5,0.1,1.1,0.6,1.3h0.1C93.6,25.2,93.9,25.1,94.2,24.9z"/>
	<path class="st1" d="M94.1,20.7L91,22.5l-0.4-0.6l2.6-1.5l-1-1.5l0.5-0.3L94.1,20.7z"/>
	<circle class="st2" cx="46.6" cy="47.6" r="46.6"/>
	
		<radialGradient id="SVGID_1_" cx="56.4119" cy="-678.9886" r="18.9086" gradientTransform="matrix(1 0 0 -1 0 -632.61)" gradientUnits="userSpaceOnUse">
		<stop  offset="6.000000e-02" style="stop-color:#95C11F"/>
		<stop  offset="0.27" style="stop-color:#679815"/>
		<stop  offset="0.5" style="stop-color:#3D720C"/>
		<stop  offset="0.7" style="stop-color:#1F5705"/>
		<stop  offset="0.88" style="stop-color:#0D4601"/>
		<stop  offset="1" style="stop-color:#064000"/>
	</radialGradient>
	<circle class="st3" cx="46.6" cy="47.6" r="42.5"/>
	<path class="st4" d="M44.5,21.9l0.3,16.7h-0.5c-0.2-0.7-0.3-1.3-0.4-1.6c-0.5-2.4-0.9-4.1-1.3-5.3c-0.5-2-1.4-4-2.5-5.8
		c-0.6-1.1-1.5-2.1-2.6-2.9c-0.9-0.6-1.9-0.9-2.9-0.9c-1.6,0-3.2,0.7-4.3,1.8c-1.3,1.4-2.3,2.9-3,4.6c-1,2.2-1.8,4.5-2.3,6.9
		c-0.9,4.1-1.3,8.2-1.3,12.3c0,3.5,0.2,7.1,0.8,10.6c0.4,2.7,1.3,5.4,2.5,7.8c2,3.9,4.7,5.9,8.1,5.9c1.6,0,3.2-0.5,4.5-1.4
		c1.4-1.1,2.5-2.5,3.1-4.2c1-2.7,1.6-5.5,1.9-8.4l0.5,0.1c-0.1,3.2-0.8,6.4-1.9,9.4c-0.8,2-2.2,3.8-3.9,5.1
		c-1.7,1.2-3.7,1.8-5.8,1.8s-4.1-0.5-5.9-1.5c-3-1.6-5.3-4.6-6.9-8.9c-1.8-4.9-2.6-10.1-2.5-15.4c0-4.3,0.5-8.5,1.5-12.6
		c0.7-3.3,2.1-6.5,4.1-9.3c1.3-1.7,2.9-3.2,4.8-4.3c1.7-1,3.6-1.6,5.6-1.6c2,0.1,4,0.7,5.7,1.7l1.8,1c0.3,0.2,0.6,0.3,0.9,0.3
		c0.4,0,0.7-0.3,0.9-0.8c0.2-0.4,0.3-0.8,0.4-1.2L44.5,21.9z"/>
	<path class="st4" d="M47.6,73.2v-0.9c0.7,0,1.4-0.2,2.1-0.6c0.6-0.4,1-0.9,1.4-1.5c0.5-0.9,0.9-2,1-3c0.2-1.9,0.3-3.8,0.2-5.7V33.9
		c0-1.9-0.1-3.8-0.2-5.7c-0.1-1.1-0.5-2.1-1-3c-0.3-0.6-0.8-1.2-1.4-1.6C49,23.2,48.3,23,47.6,23v-0.9h14.5c1.5,0,2.5,0,2.9,0.1
		c1.6,0.2,3.1,0.9,4.2,2c1,1.1,1.8,2.5,2.2,3.9c0.5,1.8,0.8,3.6,0.8,5.5c0.1,2.8-0.5,5.6-1.8,8c-0.4,0.7-0.9,1.4-1.5,2
		c-0.7,0.6-1.5,1.2-2.4,1.7c1.2,0.3,2.3,0.7,3.3,1.3c0.8,0.5,1.5,1.2,2.1,2c1,1.5,1.8,3.1,2.2,4.8c0.5,2,0.8,4.2,0.8,6.3
		s-0.2,4.2-0.8,6.2c-0.4,1.7-1.2,3.2-2.2,4.5c-0.8,1-1.9,1.7-3.1,2.2c-1.7,0.5-3.4,0.7-5.1,0.6C63.7,73.2,47.6,73.2,47.6,73.2z
		 M57.1,23.3v22.2h1.8c0.9,0,1.8-0.1,2.6-0.3c0.7-0.2,1.3-0.4,1.9-0.7c0.5-0.3,0.9-0.7,1.3-1.1c0.8-1.1,1.4-2.3,1.7-3.6
		c0.4-1.6,0.6-3.2,0.6-4.9c0-1.8-0.2-3.6-0.6-5.4c-0.3-1.4-0.9-2.8-1.7-4c-0.5-0.8-1.2-1.3-2.1-1.7c-1.1-0.4-2.3-0.5-3.5-0.5
		L57.1,23.3z M57.1,46.7v15.4c0,1.5,0.1,3,0.2,4.5c0.1,1,0.4,2,0.8,2.9c0.6,1.6,2.2,2.6,3.9,2.5c2.3,0,4.5-1.2,5.6-3.3
		c1.4-2.2,2.1-5.2,2.1-9c0-2-0.2-4.1-0.6-6c-0.3-1.5-0.9-3-1.7-4.3c-1.3-1.8-3.4-2.8-6.2-2.8L57.1,46.7z"/>
	<polygon class="st5" points="25.1,90.5 24.8,93.4 27.4,94.6 24.6,95.2 24.3,98.1 22.8,95.6 20,96.2 21.9,94 20.5,91.5 23.1,92.6 	
		"/>
	<polygon class="st5" points="89.1,10.7 89.1,13.6 91.8,14.5 89.1,15.4 89,18.3 87.3,15.9 84.5,16.8 86.3,14.5 84.6,12.1 87.4,13 	
		"/>
</g>
</svg>
